<svg fill="none" stroke="#fff" stroke-width="1" width="800" height="368.8" xmlns="http://www.w3.org/2000/svg"><g transform="translate(0, 0)" id="single_state_map"><path d="M547.159574034009,287.181762178765L548.5394065137316,288.94397053139437L549.0072110744914,291.3634060989125L548.8424747861445,292.4362115907861L547.48456286092,291.8714001638273L546.0954307520187,289.412301747886ZM586.3116771449731,317.0442951849527L589.870445954748,317.8523440024219L591.1149356169244,317.19877210098457L591.7918157694512,317.659976655671L593.4529620318972,321.24361450157176L593.5084276773687,323.3618661406963L593.0691862633757,326.13344414997846L593.4830197619267,327.6683034473608L594.401192078738,329.4667374868541L595.9399485785689,330.9259590417241L597.5540985006883,331.84282359752615L599.3803131810946,332.1375097453365L601.1406001332016,332.91836563835386L601.906491022175,334.74182124190975L602.0835161062241,336.20582000579816L602.4732702077908,336.43866486629486L603.8351676883758,336.5947042283624L604.8739030549259,336.0068364791441L606.849908191065,333.16498951262474L606.7783342593357,331.03312516920687L607.1514818802207,330.1213019129036L608.306462611532,328.7328635998656L610.5320631522991,328.387836924584L611.2292032112528,333.7512023659783L610.7251965226078,337.30560257783145L610.8922577182511,343.2293493018806L610.4236228334557,344.44384668915063L602.9377534724172,344.8218906388702L595.941111032218,344.2675407637935L585.8339086958003,344.1980796183652L567.4556825917862,345.8679301123211L563.5652823628261,347.0837532356072L561.1925484032326,348.47130736617873L558.4280675643913,350.95813169893336L557.7925375487612,352.44988767994437L558.0995913765382,353.11247231753896L557.6809419985893,354.27529331034293L556.5221417767207,354.87656319118196L552.135041710615,351.95287393784383L549.256806479114,349.0772422247537L546.0414596898099,344.65443763841904L546.8676321036492,343.28797493458205L550.4368629962537,342.7660877949229L552.4329619740183,343.1963861054701L555.2557315600461,344.5172884202948L556.6368925582228,344.219316182458L557.645404129933,343.3189468706041L564.2341914046247,333.4749237551023L565.0411003008794,333.20616687512666L567.0229177052588,331.0125333926271L567.1788525588454,329.548891828611L568.8585980796506,326.1239199805532L571.2660395838666,323.81822087593355L577.5019391441037,319.44592421567904L585.103555675485,314.72162206270696L585.9523129030513,314.9949363338101ZM670.0312567167257,355.5929700391598L671.7035293212284,355.2941215258188L674.9429555075203,353.1646465242047L677.6792053292047,350.30694628175024L680.1296576183795,346.39678265122166L680.549303385169,341.842617576719L680.1974120595569,340.1756193745932L679.4936294083273,339.13381344410027L678.9462798051063,338.19594659482846L677.7625698622196,336.60267215038493L677.1019640607592,335.6504742332336L677.186823177035,334.80889308287715L679.7673042099377,336.11175138445924L682.269568718837,339.91517495974495L691.929392465725,359.79431894848676L691.9453346871778,362.9285104227274L691.2410538415297,365.1323109172463L691.0246713982651,365.59706307043507L689.4844203151733,366.71779637870077L685.0694213615243,368.4932538236935L682.8044634615453,368.8000000000002L676.5634158922985,367.75738976679713L671.5097316916854,367.3786215825394L669.2299940239027,368.1626496736044L665.6260555866793,367.83115454245126L656.9886928552696,364.8427168110875L645.9463795917527,358.911938318327L642.7929749753803,357.71877131147994L641.0306952455958,356.31972962632426L639.9177289104027,354.7558691165941L639.5776281860726,352.7804100169151L642.0509974185879,352.86265252447265L643.9368293646367,353.85063134579923L644.740749094366,354.3856016852815L645.451838597095,356.1139507482703L647.2141183268814,357.2661420316408L650.6767356135169,357.2661420316408L652.7336143105731,356.2845860731586L664.6643742904853,356.4527880892092ZM143.13834672193843,31.84142877236991L183.33499746768757,32.92840389100638L218.83799251397613,33.95763986233487L277.05931739005973,36.156948922644006L305.7162907759157,37.337397933927605L332.5238004084167,38.240412778754944L356.29165981720325,39.2217962763043L365.02517407175037,39.461368186245636L395.4140373277496,40.57939166619599L413.6152383477147,41.12153430309536L414.3459234976435,41.1441325409005L460.8341055139135,42.64321833686154L464.432397747707,42.861040207565566L470.4108968574001,42.9062310434947L472.9477028461133,39.681951534261316L474.77840127630225,36.374645479406354L476.82099839997136,34.00105061525392L478.4984190134837,32.59917713806317L480.50780317579483,31.94341400250778L482.0854188404155,31.672054766345354L484.67636195614796,32.43523922993245L484.6888168166588,32.43976168070367L484.7037626492711,32.44451025243325L489.076913271605,33.729505102628536L488.3626685375475,21.71858592712124L490.3057928419439,19.251746907099005L491.418427047518,17.938939817646315L491.7671631418034,17.64467306636743L494.40759356996205,16.10533080469304L497.2639082469632,14.769587868186136L508.6064666811817,18.18792993074112L510.3667536332887,12.120364636434715L511.37974895478146,9.629184479668766L511.89454985587145,8.564635890546015L514.0866053056616,6.2314056743525725L524.8311643705838,3.9884194792330163L527.7042515930752,2.3795916920780655L530.6103857121161,0.5439423775751493L530.7598440382371,0.4532867842035557L531.2862694758023,0.28625231414844166L533.400274466394,9.094947017729282e-13L533.4024333088837,0.005666175505211868L535.4148066377165,0.013372170509683201L538.1767965044546,0.9017995926224103L544.4060534724176,5.8122891151961085L546.2741164841391,4.893133859352929L547.3669889777066,4.004506822499934L548.8658899239035,3.333354333506577L549.6086978047297,3.2404508772524423L549.5364596137733,8.151478620508897L551.6140964116767,23.730435409697748L553.6654949701078,31.57504256476568L557.0864299902369,39.72579658156883L557.3876715497754,41.13599717948273L556.0427126794821,42.56051744634078L556.0229509674737,43.66722285852211L558.3893744644083,45.468313399062936L560.9914439221957,45.86862475474118L561.7096742116155,46.2720872877544L564.135382844579,49.09329008706209L564.2972960312109,50.38624600559069L570.8473902059177,52.77039292693462L571.9779594106294,52.498081411376916L572.1440242174303,50.73289604026104L575.1408297209873,47.28611408230154L578.2042272120725,44.61591940577455L580.6991848694724,43.87576537028781L582.3674719186074,44.936053302964865L581.8970103209358,47.65045912813548L581.7390826896699,50.024004511792555L581.9091330518331,51.06463323821481L583.2328356268554,51.792440350865945L586.4455253792548,51.18589940673883L587.0652792382407,53.856651079071526L587.1106149304978,55.81784435198915L586.6879799971866,56.899352274448574L584.762126432699,56.92914843368726L582.6350023223677,58.34168474065609L579.7761966732633,64.74958380502085L576.6056873817924,68.81187498260351L574.9184689446811,69.21738551572344L574.3978557753544,68.92509433928262L574.3824117483218,68.10660161132L574.3204695753848,67.14076853114511L573.9959789428922,66.55293572457867L573.6404341915277,66.09117875133325L573.1150051428049,66.00703674105443L572.6048540563079,66.07019969134035L572.1715909753602,66.34450406885026L571.6611077592515,67.31783537725642L569.3242437979279,69.90365951514377L564.1573033990753,71.230330893477L562.9357306802394,70.02318458878744L559.5747450553627,71.46823000194854L551.8015835785554,73.46597274625765L549.9250512616891,75.134298939789L548.6131392879506,75.7429632939511L544.4281400917225,76.03601451813574L540.6269166640159,76.89056212306787L540.465003477384,77.66864896145762L541.4743453731262,82.25132064579248L542.5584164319334,82.74161309069586L542.9945026145979,82.50480577430972L545.4911209200654,82.95475880085814L547.3178337948921,86.53652093449273L546.5041162415582,89.48703372734781L545.5741533234668,90.14011713479704L544.6109774440101,89.26182553156923L542.8839034532648,89.53207493443551L539.2469181194865,92.12170216560844L538.117511368424,94.0577568081726L537.8685802230266,94.75587802204882L537.9848255877878,95.2511381451186L536.822371940174,96.15156650928384L534.5306776062989,94.80090238881712L532.9362893961897,94.55326659143611L532.222210726939,94.84592661173883L530.0633682385051,96.82685003329243L530.184429482666,99.80896535687316L530.3685953534114,101.34208976800346L531.1871287861395,102.88269724754446L533.6837470916089,103.62267801168582L534.4808581642574,104.18511841628242L535.5436729277935,105.2874365514972L534.9292331426241,106.20971818577618L529.8308775089845,105.78232687704622L528.6846982124334,101.69873725888374L528.6320556686787,98.13320672442569L528.0661068070949,97.20049301329345L525.8325351556032,99.46689812057866L525.7719215011184,100.56823494756281L522.0920914471844,104.45530681109176L521.311586855214,106.0974729853915L520.8298328506808,108.25629320244843L521.0623235802032,109.26833730990438L521.7476730378767,109.39360083199335L522.0203514506466,110.69677025574674L522.5334917036671,111.76102970767079L523.8005661795687,112.10842007718384L524.2175549094482,112.54281464372798L523.9609847829397,112.75978207841763L523.8326166872794,113.21596490452157L523.8005661795687,113.95405502775338L523.8807754812533,114.95287703940448L527.0245483388298,121.16004054104269L527.0693858366667,122.44639670455581L525.3164057360609,121.79772833493098L523.4367181878642,119.77918376901289L522.6014122096476,119.65805742586144L519.5581085601862,120.46569656611337L518.1259656663224,121.75750856714694L516.6640971720408,126.4797400141988L517.0817501611491,128.8604761522729L519.1105639058551,131.76532941340338L518.2453662624139,134.9921694293098L518.4542757893705,136.20207266962552L519.9161442836521,138.78270408182198L521.0797603849169,139.62942027356712L524.689843219996,139.46807010275916L526.5384766493207,138.87875606848775L526.5351553531837,137.0980975554503L526.9347072783494,136.6350537067001L527.7421143690226,138.49476863428117L528.3107202675146,139.26318190682468L529.915072366035,140.36097097894435L531.7510848700404,140.5517065099457L531.5009912709957,139.1036228883604L533.0420726781213,138.48646487503356L533.7269239413763,139.1036228883604L534.8280996752837,138.68956893923587L536.4943939467375,135.66784244290739L536.5755996372645,134.02102934174127L536.3522424721159,133.2523311815312L533.285855814509,131.76982006639082L532.9700005519699,131.04613292920112L534.6196883427456,130.55145360292772L538.7367670329913,130.33341196186302L538.9895176689424,132.17397299403092L540.7114436506763,135.54034249825327L542.2169871891492,137.71823384427717L543.996205529229,139.44518022154443L547.3204908318003,139.63503046893038L550.5310217417118,140.64236108431214L554.3535014646895,142.665108489884L557.3028124334996,143.72471974977088L558.3335766893215,144.8766737352471L560.0388961903773,148.32838494475618L561.2441945581486,149.86612054508805L564.0124948875437,152.30480570449254L565.3893382007445,152.9731509604826L565.9808610425753,158.1524860910522L566.7125425813429,161.75354770017748L568.0472054336151,163.01851993481978L571.5260970713189,169.7631329526521L575.0772268999826,175.29068752838702L579.023258839221,179.70039543740222L579.3037422979105,181.27881085552235L577.8309135263789,182.4529987103424L577.6912530238587,184.21812510436575L578.5185878913471,188.15922514785962L586.0439806764061,198.50354895424152L585.2448768260729,199.0412273838374L583.3613697873207,198.04272939821112L580.3932934953409,201.11487563397895L579.1946377198401,200.8845100312783L578.8522120882153,198.19626308204715L579.6513159385486,196.42951980785983L580.7357191269675,199.19497375356605L583.8750082347615,197.0441612846207L578.3311007244702,189.26083769847992L577.2455350824021,189.18212197412413L574.1756610638531,191.22389363903312L573.7927156193655,194.7396775466268L574.4825488268234,196.7670171448408L573.9142750579431,197.78035504418494L572.6083414172517,198.2890082450158L571.2798229628315,196.66778034888193L569.783412988736,196.53769863474463L567.0607804812098,197.82505289129858L567.4211411119722,199.6222369123352L569.2566554215573,202.40203900382403L575.3188511938806,208.32381341252858L577.1128493017659,208.74611280815316L577.662191682668,208.0826214613444L580.5042247862839,210.58300287252587L581.7892342613213,212.19103610576803L582.9553413346894,212.8762147365469L584.3378308513202,212.76525777609004L586.013092622341,211.18653900121262L588.4220287098178,210.68750152580105L593.5087598069822,215.23423636588814L594.597314615572,218.11119481190235L594.427264253407,219.186166592036L594.6698849361437,220.25190863894568L596.9723734824602,224.17634742623886L598.054617828393,231.05389071575155L596.4072549449102,235.36744445803652L595.3148806457648,237.17683584517636L595.1317111638618,238.69607484552216L595.486757720806,240.63294241174663L596.8773844129682,243.0743758276285L599.4090423926718,246.15798803140206L603.2888144739954,249.95951734878872L607.0246083678248,252.70258188424214L616.8350528944829,256.52373684980466L623.0018694950886,257.7740828546539L637.0150821523039,258.7681834349896L639.6312671186697,260.58596022296297L640.1151799656927,261.65328735916137L641.5491495724309,263.26202620998083L642.2879718978966,263.29784311780895L646.332480267567,258.8970308999387L649.4506791448985,256.8388931105519L653.9043711985287,254.83544037190768L655.0963843817572,255.07962690143722L661.8291498439485,253.03451930692518L665.0765471409686,253.30856779867736L669.3804487388643,251.59250574526504L674.6525081604232,250.19064976500977L681.2253532136638,246.95735083610816L683.9275597499527,243.96769617761765L684.6947791573766,242.24471852769602L684.5878334217978,235.49115369134506L683.8360580414028,227.06332144186217L685.3015799614368,224.7630239660566L684.8475587796365,224.0097090388217L683.3144484832374,223.71055812887607L681.2916130715766,222.1123032361602L681.0893461368905,219.23860760737625L680.2616791397904,215.3429419480235L677.86071416304,215.14316410993797L676.2882465074272,215.7420428004607L674.4271582175934,219.24775687112742L674.4185228476381,221.9291305255174L674.4768115948264,224.59260026630272L674.6907030659877,226.55056547538607L674.3721907665422,226.97723147197757L674.1124654087016,226.80281962833214L673.5606320556981,225.64745454406875L673.2035927210727,221.89744877029716L673.043008052895,213.22314500546963L672.4758967376638,202.7608421216055L671.4207209552405,196.82937504734946L670.4570468813672,193.95593382970856L669.4578349388375,192.18173249552092L667.3878371220471,189.77382096965357L664.8996881217245,187.9698000098524L660.7063856851546,185.6701070667741L659.5238381959152,185.56743751477097L657.1381511813943,186.16532624688625L655.6955462047026,186.90700434060454L654.3092371975163,188.24219569380693L653.0405020735434,190.6975466676795L652.8928704602968,191.88414755139001L653.2700036365441,193.35680794643577L653.8699957835233,194.1034758805481L656.4777114447388,193.40576731511464L657.6192409267005,191.79203133941246L656.9343896634473,193.25195832013196L655.5073947785913,194.63506166046773L654.3271721966503,195.07185023514558L653.6419888037817,195.04413221882623L652.6690151007278,194.50742029497815L650.7886632933041,192.65168490733595L649.0142608326205,189.27134800367185L646.5971875696123,186.61758450521393L645.6640694201888,185.99913673068022L644.8893770964551,185.97900597083571L644.5829875279032,185.27127979038778L645.7949284879487,183.22552019003706L647.8642620455121,181.94512068287258L650.9741576824999,181.20698714340324L653.895901893382,181.10920786093175L658.7348642987981,181.9390797335691L666.0745966298509,184.39775747955355L671.6118615478717,187.30131260133294L675.6128609381612,190.4978695844411L679.7694630524275,195.55645972255024L683.3569610737777,201.81734479224815L687.6435919317701,210.77904886080069L690.547567208323,219.23838445453384L694.4142201699105,234.0654232947427L695.9689188911943,242.04375775877543L697.1811919808515,257.22414884430964L697.2461233203103,268.2477222314528L696.4402108128997,273.069615931553L694.0347620863668,278.5419176689302L693.4419107260837,279.56301940838057L692.3448866123454,284.10320719810534L689.2389765307198,287.8124955504718L688.1944288959348,292.66466083557407L687.28987389328,298.68162249872967L685.6531391574354,301.13447252665264L684.6459561041793,301.4739419800708L683.4223906076586,301.2955551118439L682.9321672979786,300.7164481251839L682.578781389102,299.5541697727649L682.832030219477,299.05155174317133L683.5652063415091,299.1281105932485L685.0787209907048,297.0728630120175L686.2699038498995,293.767115930159L687.4597581906401,286.7209095036742L689.8107376605403,279.50813287506116L689.7911420133387,278.1932375245151L689.3650197190818,276.68752626559854L685.9374421066805,273.6987481083297L684.16851978462,272.7216917384276L682.9728531756446,272.6345426286125L680.4594623246903,273.5742577169085L676.1123838770236,274.2191506809613L670.5135089156811,274.67040286577503L661.9380883572085,277.4242889031111L658.9914344253102,277.4209552209113L653.6042920926375,278.57191843185865L644.5029442910254,282.30041280664955L642.7853359942692,284.02901163464503L642.9165271916427,284.73029985964786L642.2222102344003,286.21362127699285L641.2552148643899,286.5534441852915L640.8960166872766,286.2027379264773L640.5472805929912,284.6783208524239L640.6397786903817,282.9084786145704L639.7443572521006,281.3121674879303L638.6154486954601,280.82379626725105L637.0710459921975,280.8080205770857L631.9283510551395,281.849623208971L630.5440348256343,280.94533515670173L629.1917691038452,280.55427398979555L626.9387678699532,280.92111633780223L625.49101488425,281.72498149162857L624.7370806613671,282.6909819723069L624.7616582527753,283.36856532807633L623.913067090014,285.09747952638827L622.3691625811734,286.1030105133241L618.8103937713968,287.20885763373917L617.4895142980895,286.99497982059256L612.721627629986,287.44272037384053L611.385968388875,290.443731185871L608.7307581929126,294.8828047560737L606.2434395166238,297.8387606697024L604.6965458412615,298.783703507268L603.4223305786636,299.2719069810828L598.5926678024298,299.95514203554467L592.3881544906781,300.09604550983295L583.8537519394904,301.2811331910134L580.1129761014599,302.3316767209162L578.449006737299,303.6399229744902L576.7091457564293,306.5971804204419L575.0896817604935,307.7047751262162L573.1761169917081,308.01703308048764L568.2270536193846,311.5529692082391L563.3904161212613,313.84578436498396L559.5933443137255,317.48489353678997L559.7079290304209,318.3580716768465L558.9802330470102,319.4727372228308L554.0967652733707,322.7094309333752L549.5784740098934,322.8815703646733L546.5247082776059,323.69793071825643L542.9275784974561,327.26633232259155L541.36358014699,328.01689079714197L535.4156369617522,328.3085549144089L531.1919446655374,329.4778095279262L529.6832458957379,330.39963777294633L527.8317893646963,330.9365871230839L527.3976959597148,330.3644309091933L527.5943166909692,329.5792290275549L531.197258739352,326.0486123722985L531.9390702313394,326.17021181459677L532.7220657954131,327.3697606773112L533.9414796717629,327.55048167013047L534.876258469254,327.2793993292307L538.6565577313067,325.83287604058296L543.3033831552511,322.1438154301859L547.7404687282014,320.46965807014567L552.1179370355148,319.4911295872389L554.5120933551862,316.44498881666914L556.5880695050218,315.81196647990146L560.1357119727418,312.53314703252545L561.6057176425584,310.6019931009723L575.952720561445,301.1932700986108L576.6762649246812,299.7418980824632L576.4997380350524,298.06157572172833L576.7431890418266,296.36108082498595L577.5932747878451,295.31564911269106L578.594977702478,294.75738843702493L578.8938943547237,293.66078132568236L578.7125515856951,292.3862586469804L576.9839830116871,287.4691490664436L577.0608710172382,286.36443256892017L579.0508255971508,283.1586289939951L578.1793174910508,281.17441205095747L576.9565823185658,280.2229746117373L577.3210945694973,278.8068111214179L579.2680383644474,277.6456436641665L579.4445652540799,276.50194055813336L579.2168904039518,275.66355214480336L577.0658529614429,274.61905419655614L576.7672684388108,273.71964460361596L578.3307685948548,272.4013272217944L578.0037869902608,271.1978397396588L577.5094120604099,270.6397500437206L575.4850820654901,270.458977678094L578.0612454134152,267.7820341637589L581.469227378615,266.69292317706277L581.7661512531758,264.7562492024126L581.2883828040049,263.5111854491879L578.2806170232016,262.1796903726563L577.2091668897119,262.9060769082189L576.2953122578783,262.9759326575331L573.9941522300196,261.5273571381922L567.7268664212952,259.51432544060845L565.9755469687552,258.4503992300797L564.7147829555124,259.12000770647137L564.2826823282139,261.1889419851459L565.5499228689223,263.5171919129698L566.1894384399184,267.74066858794504L565.8367167902688,269.7371995643789L564.2059603874695,269.0394016320979L561.7148222206288,267.07635663788824L559.8962465213335,267.6637194028981L558.8776049964072,271.5591411823525L558.7316340312263,273.57625846389965L559.4227957571402,275.0233921948311L559.5184490858574,276.57039640452604L558.2163349357197,279.39058165665847L557.5761551054966,279.48613376014146L556.8560981032024,278.62214179058174L556.5000551574176,277.7083157760626L556.3487701184204,277.3502809756301L550.9667757947609,276.08764234646696L550.2746176800083,276.25811951087417L549.8689213569905,276.89689072662713L549.7656290471605,278.40835795409475L551.7064284442586,279.48346719845995L552.4452507697242,281.5730104435888L552.3044278135549,282.07068740156956L550.7739745540639,283.10153466514384L546.6195312822874,283.1772901260565L545.1467025107577,282.18843879481574L543.7595631795357,282.6469934858378L543.3204878303495,283.2632643133584L544.1476566330311,290.0631434746165L543.6594261010341,291.44156020372066L542.9755712266215,291.356301159165L541.0384252552722,285.369359676728L541.1287645101729,283.59227187676424L540.9188585943739,282.9382480716822L540.4138555168884,282.44771061999654L537.6664793531509,281.31727774477804L533.6820864435394,284.3471168513315L535.1235289665838,286.3251196163328L535.8776292542752,290.06869470989204L535.6451385247492,290.2907423579136L534.0786492021834,289.62414498105954L533.1209534613536,286.9643304020574L532.5408890911931,286.2253930549832L531.3621610925093,286.126998462295L530.9386958351643,286.5210169876318L530.8925298188715,288.528255463616L531.3254607702056,289.94434652440214L530.6703351073702,292.13449316081915L529.5676647902037,293.64057988161676L528.9681708376465,292.83738292080125L528.0842078710357,292.82517255896346L527.7710096454066,293.28050101540884L528.0196086611904,294.4745872602007L529.5922423816082,296.34354661152247L530.6359596923612,301.90680935109594L528.9354560707052,301.9174589219165L527.0233858851825,307.48765426408954L522.1485534814983,308.58165273377745L518.7241311004236,308.1747118955991L516.0539750718472,308.8522010217621L513.3703677939211,311.02749007954117L509.5668194589198,309.4930696567608L505.04238379759045,308.75573561867895L499.2455595865358,311.38202431078116L498.94166099008726,305.902727734634L497.4616914318649,290.33426329373924L497.41087560098276,289.9767659767267L496.43541092582745,288.05745247038976L495.92127428396634,287.4931347284646L495.8678014161742,286.9816539945041L495.7683285969015,285.05571969979155L495.9412020607833,283.3192472276787L496.73499183729837,282.3175198702611L496.934933864688,279.47435644230154L496.93593025352857,279.4601347625676L497.23617542422835,275.574865026776L497.199973296345,275.2730135249885L496.9010566440993,275.18410170704465L496.81802424069974,275.18410170704465L495.0441199744346,274.67440405304114L493.6958398080078,274.3838704917516L490.0256415128679,273.4946722206969L490.0256415128679,273.4057493550872L490.0422479935478,272.76104205542833L489.1621045174925,272.51649030950557L487.5205539022518,272.1185289893401L487.5200557078315,272.13542589605913L486.98665554838226,272.00514133599427L486.77907453987973,271.94111026423343L486.7707712995398,271.9384422966932L484.6649034844777,268.4927917165978L481.93695690313325,264.06666144586416L481.77205454997966,263.7990479504533L475.85998136300805,254.76443183764331L466.49342806493223,249.46562070956224L464.8160074514217,248.48579323462127L464.56691024121574,248.01834730547398L464.58351672189565,247.08296410415278L464.10192878217094,245.85796486250092L463.8196186106052,245.36793573528485L463.50392941287464,245.30111227839188L462.922702589065,244.96699030215132L462.6902118595408,244.5214821691925L462.6736053788627,244.09823656456865L462.922702589065,243.16259648477262L462.922702589065,242.69475344527018L462.9891285117865,242.2937329201568L462.93930906974674,242.13777745079005L461.61079061532655,238.99602575267363L461.9927396709718,237.90404934952403L462.8728831470253,237.01257807685033L463.20501276062896,236.63368591690596L463.60356829695775,236.2324950139473L462.50754057205995,234.40470476916835L462.44094858453354,234.15949557660497L463.8028460651203,230.25787303846846L462.67343931405594,225.95370232691312L462.92253652426007,223.32171948337418L462.92253652426007,223.27710163372285L463.02217540834135,222.2062313254146L460.6971020482997,222.58550709766223L460.364972434696,222.63012711299416L459.0696669416375,222.83091545285424L458.70432436667033,222.87553469968316L458.58807900190914,222.89784427069753L457.65811608381773,223.05401028976758L457.1931346247675,223.09862883798996L456.7279871009159,223.187865515285L455.8810565862241,223.36633719331712L455.8810565862241,216.78371475413041L455.897663066904,216.73907642162794L455.93070996345887,207.38425837766226L455.9141034827753,206.95990845563028L455.93070996345887,195.3190746671453L436.251366098144,195.67671542235166L436.08530129134124,195.69906767078464L431.7010243269524,196.14610525873832L431.65120488491084,196.16845676910907L426.36486388997037,196.31508180570745L423.46387777993914,196.3696187810092L392.0606906839894,197.34253220219398L386.54202502433145,197.71800131271903L386.30820577635313,194.25258121527622L371.34078473925,194.07396759290805L355.30789190170617,193.51240426040022L342.6587355675674,193.40800289869549L330.6703510996922,192.76011605934036L311.76619775253675,192.45136456178443L300.5360651925221,192.38854030033326L277.36471056976734,191.92081500359836L265.49921405892746,191.85463465528392L258.0096912721401,192.78336716772083L256.4983354654323,194.00086725284382L255.1862574268871,194.00086725284382L252.41297515328552,193.93380238998088L252.24691034648276,192.6371528344025L246.40126308223262,192.2794355848555L237.63420373671215,191.29723185635703L227.68509509637443,191.42982102630958L227.40278492480866,192.07821567484734L228.06704415201602,192.34650825503832L228.3659608042617,192.77129448157848L227.9840117486183,193.8443820805678L227.4145755260888,194.83870426793692L227.30098719823945,194.85703419485344L226.90126920826333,194.63774412870498L226.63672797102845,194.70905289043094L226.61032366674772,195.10068585605222L226.7690816220511,195.45654389706033L227.03744234984333,195.72209044992815L226.78834513963739,196.25853299971186L226.4562155260337,196.66085162779746L226.4517317762511,197.34320269158889L225.97446152150042,197.80069258204549L225.87482263742095,198.85105333885076L217.57125016768805,200.05775502627603L218.1026575494525,191.36296761970334L212.52271397608456,191.27353113240224L209.78646415440198,191.0913025475411L209.7675327664274,191.0910789527552L187.21327496575032,190.88022749861466L178.29476451642768,190.61011841330128L148.97701926430273,189.48848469679524L148.76810973734428,189.47327852769195L138.46528305851643,189.0271491172325L138.2455793191166,189.01730951368336L115.26353857611866,188.21155703112163L106.21267447577338,188.42378991471105L104.62426459870585,188.415515351674L102.75387667969153,180.23207296793134L128.59605159024977,85.09347257834634ZM537.4364795957281,126.37080050985696L536.1808635914949,125.52171744539737L536.1808635914949,123.282409230329L536.6255851441128,122.57019528404999L536.8662130491684,123.43675496349533L540.2338412663139,122.58727086504223L539.4913655151013,125.44466849412493ZM531.6717058923896,128.45533013192744L531.2155258681032,128.45533013192744L528.8183803819084,126.29375618842732L530.816472137356,124.5182511216708L531.9580016193158,126.44806902839537ZM526.6645198376827,130.10548636257954L523.0511157064684,130.02150102793803L523.0207258468254,129.5622675796185L524.6576266474749,127.18142506598724L526.3642746669848,125.21239593529754L527.1054218997433,125.44466849412493L527.6768508999485,129.4585169299753ZM529.6749426553961,135.7091449953723L527.7339771934894,135.47793893732796L527.3918836914763,134.62940275755045L530.017036157411,131.8511006388917L531.1939374432186,131.6910088993036L531.2281467934226,132.90546041307607ZM637.1029304351032,348.0274549697233L634.5347381979045,347.95159840875203L633.9076774874175,347.26732321538657L634.1356844671591,346.50715135123573L637.3322659332971,346.96277270508654ZM550.5849928039224,366.1704723812809L548.2449736112703,365.6388105112019L547.1604043580446,364.0443700854985L550.4127835992676,363.05753127623666L552.1257420814363,364.3478972605608L551.8406088081556,366.01872875988647Z"></path></g></svg>