<svg xmlns="http://www.w3.org/2000/svg" viewBox="0 0 183.3 225.13"><defs><style>.cls-1{fill:#fff;}</style></defs><g id="Layer_2" data-name="Layer 2"><g id="Layer_1-2" data-name="Layer 1"><path class="cls-1" d="M6.94,218.9a49.88,49.88,0,0,1-5.07-14A84.21,84.21,0,0,1,0,186.52a83,83,0,0,1,1.87-18.17,60.56,60.56,0,0,1,5.07-14.62c2.13-4.15,4.47-7.15,7-8.76s4.92-1.57,7,.6,3.79,6.15,5,12.12a111.92,111.92,0,0,1,1.85,22A142.09,142.09,0,0,1,26,203.64C24.79,210.77,23.11,216.27,21,220s-4.47,5.39-7,5.06S9.07,222.58,6.94,218.9Zm11.35-11.34a33.75,33.75,0,0,0,2.92-10.17,98,98,0,0,0,1.05-15.15A81.27,81.27,0,0,0,21.21,168c-.7-3.84-1.67-6.47-2.92-8a3.22,3.22,0,0,0-4.33-.94c-1.64.82-3.09,2.5-4.35,5a35,35,0,0,0-2.94,9.43,71.42,71.42,0,0,0-1.06,12.88,68.69,68.69,0,0,0,1.06,12.73,27,27,0,0,0,2.94,8.74c1.26,2.11,2.71,3.23,4.35,3.23S17,209.93,18.29,207.56Z"/><path class="cls-1" d="M40.94,203.23q2.73-31.11,5.46-64.86c1.94-1.85,3.87-3.77,5.81-5.75q-4,46.37-8,87.69-3.31,1.16-6.63,2-4-36.93-8-69.64,2.93-2.16,5.85-4.57Q38.21,174.55,40.94,203.23Z"/><path class="cls-1" d="M75.22,163.57C70,168,64.69,172.24,59.42,176.16c.13,6.31.68,11,1.64,14s2.15,4.17,3.55,3.26c2-1.3,3.47-6,4.33-14.28q2.94-2.19,5.89-4.47a143.33,143.33,0,0,1-3.59,25.47c-1.77,7-3.94,11.11-6.51,12.45-2.08,1.09-4,.07-5.6-2.85s-2.94-7.51-3.86-13.72a154.64,154.64,0,0,1-1.38-22.35,205.89,205.89,0,0,1,1.36-24.55,118.32,118.32,0,0,1,3.82-19.56c1.64-5.45,3.53-9.46,5.66-11.88s3.89-2.56,5.51-.5,2.89,6.27,3.79,12.66a179.5,179.5,0,0,1,1.34,24Q75.37,159.19,75.22,163.57ZM69.72,152c0-6.14-.53-10.6-1.52-13.29s-2.2-3.25-3.63-1.81-2.49,4.23-3.41,8.51a90.14,90.14,0,0,0-1.7,15.63C62.88,158.17,66.3,155.14,69.72,152Z"/><path class="cls-1" d="M87.56,95.54c1.13-4.51,2.42-7.7,3.88-9.48v28.56L90,116.15c-1.71,1.83-3,5.18-3.88,10s-1.3,12-1.3,21.56v51.68q-2.73,1.69-5.46,3.34V102.18q2.73-3.25,5.46-6.55v16.1A124.8,124.8,0,0,1,87.56,95.54Z"/><path class="cls-1" d="M104.11,160.62q2.73-46.17,5.46-94.74,2.91-3.4,5.81-6.73-4,65.41-8,126.3-3.3,2-6.62,4-4-54.12-8-103.5l5.85-7.07Q101.38,118.51,104.11,160.62Z"/><path class="cls-1" d="M118.83,35.26a55,55,0,0,1-1-11.84,98.36,98.36,0,0,1,1-14.29c.64-4.35,1.44-7.2,2.4-8.5S123,0,123.63,2.78a58.63,58.63,0,0,1,1,12.18,101.72,101.72,0,0,1-1,14.55c-.64,4.33-1.44,7-2.4,8.16S119.47,38,118.83,35.26Zm5.09,14.38V176.36q-2.73,1.35-5.46,2.81V55.66Q121.19,52.6,123.92,49.64Z"/><path class="cls-1" d="M149.22,107a124.45,124.45,0,0,0-15.79,8.94c.13,9.47.68,16.62,1.64,21.55s2.14,7.11,3.55,6.46c2-.93,3.47-7,4.33-18.58q2.94-1.43,5.88-2.63a247.39,247.39,0,0,1-3.58,34.6c-1.77,9.2-3.94,14-6.52,14.91-2.08.71-3.94-1.46-5.59-6.38s-2.94-12.17-3.86-21.79-1.39-20.93-1.39-34.13c0-13.35.46-25.43,1.37-36.41a199.25,199.25,0,0,1,3.82-27.23c1.64-7.16,3.52-11.86,5.65-13.89s3.9-.84,5.52,3.46S147.14,47.32,148,57.3s1.35,22,1.35,35.78Q149.38,100.76,149.22,107Zm-5.49-20.72c0-9-.54-15.84-1.53-20.48s-2.19-6.32-3.62-5.14-2.49,4.65-3.41,10.47a171.66,171.66,0,0,0-1.7,22.33Q138.6,89.55,143.73,86.25Z"/><path class="cls-1" d="M183.3,7.92Q180.15,89.3,177,167.4a52,52,0,0,0-5.89-1.26q-2-54.25-3.94-106.73-2,53.79-3.94,106.11a58.93,58.93,0,0,0-5.93.25q-3.16-72.87-6.35-141.69,2.76-2.16,5.54-4.08,1.91,54.22,3.82,110.28Q162.35,73.49,164.43,15c1.92-1.07,3.85-2.05,5.77-2.92q2,57.59,4.06,117.12,1.91-59.25,3.82-120A49.28,49.28,0,0,1,183.3,7.92Z"/></g></g></svg>