<svg xmlns="http://www.w3.org/2000/svg" viewBox="0 0 235.05 57.88"><defs><style>.cls-1{fill:#fff;}</style></defs><g id="Layer_2" data-name="Layer 2"><g id="Layer_1-2" data-name="Layer 1"><path class="cls-1" d="M8.9,56.27a18.77,18.77,0,0,1-6.5-3.6A6.3,6.3,0,0,1,0,48a6.24,6.24,0,0,1,2.4-4.67,21,21,0,0,1,6.5-3.76,37.31,37.31,0,0,1,9-2.25,27.81,27.81,0,0,1,9,.15,12.62,12.62,0,0,1,6.46,3.12,7.6,7.6,0,0,1,2.37,5.66,9.23,9.23,0,0,1-2.37,6.15,15,15,0,0,1-6.48,4.21,24.87,24.87,0,0,1-9,1.31A29.74,29.74,0,0,1,8.9,56.27Zm14.55-2.91a8.49,8.49,0,0,0,3.75-2.62,6.1,6.1,0,0,0,1.35-3.89,5.27,5.27,0,0,0-1.35-3.67,7.19,7.19,0,0,0-3.75-2,16.61,16.61,0,0,0-5.55-.24,20.64,20.64,0,0,0-5.57,1.28,9.93,9.93,0,0,0-3.78,2.43A4.75,4.75,0,0,0,7.2,47.92a4.62,4.62,0,0,0,1.35,3.27,9.15,9.15,0,0,0,3.78,2.25,17.23,17.23,0,0,0,5.57.82A15.53,15.53,0,0,0,23.45,53.36Z"/><path class="cls-1" d="M52.5,52.25q3.49-8,7-16.68c2.48-.48,5-1,7.45-1.48Q61.82,46,56.7,56.64c-2.83.19-5.67.37-8.5.52Q43.1,47.67,38,39.25q3.75-.55,7.5-1.17Q49,44.88,52.5,52.25Z"/><path class="cls-1" d="M96.45,42.05C89.7,43.18,83,44.28,76.2,45.29a4.59,4.59,0,0,0,2.1,3.6,6.63,6.63,0,0,0,4.55.83,6.77,6.77,0,0,0,5.55-3.67c2.52-.37,5-.76,7.55-1.15a13.37,13.37,0,0,1-4.6,6.55A15.61,15.61,0,0,1,83,54.65a16.24,16.24,0,0,1-7.18-.73,10.27,10.27,0,0,1-4.95-3.53,9.33,9.33,0,0,1-1.77-5.74,12,12,0,0,1,1.75-6.32,15.81,15.81,0,0,1,4.9-5A21.59,21.59,0,0,1,83,30.25a15,15,0,0,1,7.07-.13,8.14,8.14,0,0,1,4.85,3.26,10.52,10.52,0,0,1,1.73,6.17A14.64,14.64,0,0,1,96.45,42.05Zm-7-3a3.7,3.7,0,0,0-2-3.42,6.73,6.73,0,0,0-4.65-.46,8.93,8.93,0,0,0-4.38,2.19,6.93,6.93,0,0,0-2.17,4Q82.82,40.29,89.4,39.08Z"/><path class="cls-1" d="M112.27,24.56a12.75,12.75,0,0,1,5-2.44v7.34l-1.85.4a9.1,9.1,0,0,0-5,2.56A8.07,8.07,0,0,0,108.75,38V51.25l-7,.86V26.27l7-1.69v4.14A14.06,14.06,0,0,1,112.27,24.56Z"/><path class="cls-1" d="M133.5,41.29q3.5-11.86,7-24.35c2.48-.59,5-1.16,7.45-1.73Q142.82,32,137.7,47.67l-8.5,1Q124.1,34.8,119,22.1l7.5-1.82Q130,30.47,133.5,41.29Z"/><path class="cls-1" d="M152.37,9.06a3.8,3.8,0,0,1-1.22-3,6.13,6.13,0,0,1,1.22-3.67A5.53,5.53,0,0,1,155.45.16a3.15,3.15,0,0,1,3.07.56,3.9,3.9,0,0,1,1.23,3.13,6.19,6.19,0,0,1-1.23,3.74,5.2,5.2,0,0,1-3.07,2.09A3.31,3.31,0,0,1,152.37,9.06Zm6.53,3.7V45.34c-2.33.23-4.67.47-7,.72V14.31C154.23,13.78,156.57,13.27,158.9,12.76Z"/><path class="cls-1" d="M191.35,27.5c-6.75.63-13.5,1.41-20.25,2.3a8.49,8.49,0,0,0,2.1,5.54A5.37,5.37,0,0,0,177.75,37c2.6-.24,4.45-1.81,5.55-4.78,2.52-.24,5-.47,7.55-.67a18.4,18.4,0,0,1-4.6,8.89,12.29,12.29,0,0,1-8.35,3.83,12,12,0,0,1-7.18-1.64,12.76,12.76,0,0,1-4.95-5.6A20.12,20.12,0,0,1,164,28.26a24.16,24.16,0,0,1,1.75-9.36,18.43,18.43,0,0,1,4.9-7,15.16,15.16,0,0,1,7.25-3.57,10.46,10.46,0,0,1,7.07.89,11,11,0,0,1,4.85,5.51,22.41,22.41,0,0,1,1.73,9.2A29.71,29.71,0,0,1,191.35,27.5Zm-7-5.33a7.06,7.06,0,0,0-2-5.26,5.18,5.18,0,0,0-4.65-1.32,6.92,6.92,0,0,0-4.38,2.69A11.15,11.15,0,0,0,171.15,24Q177.72,23,184.3,22.17Z"/><path class="cls-1" d="M235.05,2Q231,23,227,43c-2.52-.14-5-.24-7.55-.32q-2.52-14-5.05-27.44-2.52,13.83-5,27.28-3.81,0-7.6.07-4.08-18.73-8.15-36.43,3.54-.56,7.1-1.05,2.44,13.93,4.9,28.35,2.64-14.59,5.3-29.63c2.47-.28,4.93-.53,7.4-.75q2.59,14.79,5.2,30.1Q225.9,18,228.35,2.35,231.7,2.16,235.05,2Z"/></g></g></svg>