<svg xmlns="http://www.w3.org/2000/svg" viewBox="0 0 239.59 54.92"><defs><style>.cls-1{fill:#fff;}</style></defs><g id="Layer_2" data-name="Layer 2"><g id="Layer_1-2" data-name="Layer 1"><path class="cls-1" d="M3.18,38.11A6,6,0,0,1,.11,31.59c.48-2.79,2.71-5.94,6.4-9.37a73.08,73.08,0,0,1,12.2-9c2.16-1.31,4.22-2.46,6.2-3.48s3.87-1.89,5.7-2.64a39.55,39.55,0,0,1,5.06-1.73A18.44,18.44,0,0,1,40,4.75a9.65,9.65,0,0,1,3.4.49,7.84,7.84,0,0,1,2.48,1.42,6.73,6.73,0,0,1,1.69,2.13,9,9,0,0,1,.8,3,18.3,18.3,0,0,1-.08,4.08,36,36,0,0,1-1,5.24A25.69,25.69,0,0,1,45,26.86,19.71,19.71,0,0,1,40.86,32a25.88,25.88,0,0,1-5.81,3.86,42.62,42.62,0,0,1-6.85,2.56A54,54,0,0,1,20.87,40a45.32,45.32,0,0,1-7.08.51C9.19,40.44,5.64,39.67,3.18,38.11Zm24.59-4.79a19.82,19.82,0,0,0,7.21-4,16.71,16.71,0,0,0,2.69-3.08,21,21,0,0,0,3-7.06,11.1,11.1,0,0,0,.27-2.8,4.51,4.51,0,0,0-1.57-3.59,5.88,5.88,0,0,0-4.18-1.27,16,16,0,0,0-6.14,1.36,35.34,35.34,0,0,0-7,3.91,40.25,40.25,0,0,0-3.53,2.78,38.3,38.3,0,0,0-3.27,3.23c-2.07,2.31-3.35,4.36-3.73,6.13A3.68,3.68,0,0,0,13.08,33c1.38,1,3.53,1.48,6.35,1.54A25.5,25.5,0,0,0,27.77,33.32Z" transform="translate(0 0)"/><path class="cls-1" d="M61.91,33s.4-.72.9-1.94a27.5,27.5,0,0,0,1.46-5.18c.2-1.07.38-2.21.57-3.38s.38-2.36.63-3.53a34.51,34.51,0,0,1,.86-3.37,27.16,27.16,0,0,1,1.09-2.92,34.76,34.76,0,0,1,3.31-5.8s1.71-.54,3.58-1.28,3.94-1.71,3.94-1.71-.77.86-1.88,2.36a30.79,30.79,0,0,0-1.85,2.84,27.23,27.23,0,0,0-1.83,3.93A26.4,26.4,0,0,0,71.43,18c-.28,1.78-.42,3.59-.55,5.35s-.27,3.39-.52,4.9a19.77,19.77,0,0,1-1.12,4,16.86,16.86,0,0,1-1.71,3.16,20.82,20.82,0,0,1-1.87,2.33c-1.17,1.25-2,2-2,2s-2.45,0-4.95.06l-5.05.06a18,18,0,0,0,.53-2,23.56,23.56,0,0,0,.33-2.36,26.75,26.75,0,0,0,.06-3.17c0-1.19-.16-2.51-.32-3.89s-.39-2.82-.59-4.24-.4-2.78-.54-4.06-.25-2.45-.32-3.48a38.4,38.4,0,0,1,0-4.92c.07-1.16.16-1.85.16-1.85l3.29-.76c1.62-.37,3.2-.67,3.2-.67a28.44,28.44,0,0,0-.34,5.13,47.64,47.64,0,0,0,.48,5.67c.16,1.09.36,2.22.58,3.35s.47,2.25.69,3.32c.45,2.12.78,3.91.92,5.15S61.9,33,61.91,33Z" transform="translate(0 0)"/><path class="cls-1" d="M101.84,26.46s-1,0-2.61,0c-.79,0-1.72-.08-2.74-.16s-2.12-.19-3.23-.3c-1.48-.15-3-.28-4.32-.4-2.64-.13-4.62-.14-4.62-.14a34.17,34.17,0,0,0,2,4.33,10.45,10.45,0,0,0,1.93,2.59A6.45,6.45,0,0,0,92.81,34a5.14,5.14,0,0,0,3-.89A3.22,3.22,0,0,0,97,30.43s1.67,0,3.3,0,3.25-.17,3.25-.17a5.75,5.75,0,0,1,0,3.76,6.3,6.3,0,0,1-2.29,2.78,12.75,12.75,0,0,1-4,1.88,19.72,19.72,0,0,1-4.92.74,17,17,0,0,1-3.87-.27A11.46,11.46,0,0,1,85.35,38a9.36,9.36,0,0,1-2.5-1.89,12.17,12.17,0,0,1-1.92-2.9,41.45,41.45,0,0,1-1.77-4.31c-.31-.87-.64-1.84-1-2.91s-.68-2.25-1-3.53a24,24,0,0,1-.59-3.85A16.3,16.3,0,0,1,76.76,15,15.88,15.88,0,0,1,79.1,8.78,20.67,20.67,0,0,1,83,4.3,21.47,21.47,0,0,1,87.2,1.45,13.29,13.29,0,0,1,91,.12a7,7,0,0,1,2.9.07,3.12,3.12,0,0,1,1.82,1.15,4.54,4.54,0,0,1,.69,2.26,24.11,24.11,0,0,1,0,3.29,42.92,42.92,0,0,0-.08,4.36,21.8,21.8,0,0,0,.93,5.37,26,26,0,0,0,1.1,2.94c.43,1,.94,2,1.47,3C100.57,24.09,101.3,25.37,101.84,26.46Zm-9.3-8.77a35.82,35.82,0,0,1-.69-4.51c-.12-1.35-.19-2.55-.3-3.6-.29-1.89-.77-3-2-3.35s-2.54.19-4.1,1.61A11.08,11.08,0,0,0,83.31,11a12.34,12.34,0,0,0-1.12,4.75,16.26,16.26,0,0,1,1.64.06c1,.13,2.28.38,3.57.63s2.56.53,3.53.8S92.54,17.69,92.54,17.69Z" transform="translate(0 0)"/><path class="cls-1" d="M108.24,10.71a4.59,4.59,0,0,1,3.5.12,11.41,11.41,0,0,0,.08,3.66,14.17,14.17,0,0,0,1.27,3.61l-1.59-.4c-1.86-.48-3-.28-3.44.64a3.06,3.06,0,0,0,.2,2.18,15.7,15.7,0,0,0,2.16,3.65s.72.95,1.83,2.35,2.52,3.18,3.64,4.91A18.62,18.62,0,0,1,118.14,36a9.93,9.93,0,0,1,.44,2l-3.44.12-3.47.13a10.94,10.94,0,0,0-.43-2.9,16.9,16.9,0,0,0-1.31-3.2,40.63,40.63,0,0,0-2.66-4.29c-.88-1.3-1.89-2.72-2.85-4.2A31.11,31.11,0,0,1,102,19.16a15.57,15.57,0,0,1-1.18-4.27,13.51,13.51,0,0,1,.67-6.05,17.29,17.29,0,0,1,.9-2.15s.9.57,1.9,1.09,2,1,2,1a12.07,12.07,0,0,0-.67,4.44A4.89,4.89,0,0,1,108.24,10.71Z" transform="translate(0 0)"/><path class="cls-1" d="M142.18,36.35a14.18,14.18,0,0,0-.6-1.7A22.07,22.07,0,0,0,139,30.21c-.66-.91-1.45-1.9-2.3-2.92s-1.75-2.06-2.6-3.11-1.64-2.06-2.29-3a19.86,19.86,0,0,1-1.56-2.74,11.63,11.63,0,0,1-1-3.87,10,10,0,0,1,0-1.55l2.93-.11,3-.11a10.21,10.21,0,0,0,0,1.92,11.79,11.79,0,0,0,1.85,5.21,29.39,29.39,0,0,0,2.87,3.86c1.22,1.44,2.68,3,4.13,4.65a39.25,39.25,0,0,1,3.75,4.84,14.07,14.07,0,0,1,1.87,4.14,9,9,0,0,1-.17,5.24,12.49,12.49,0,0,1-.77,1.71s-2.29-.82-4.55-1.42-4.5-1.32-4.5-1.32a16.81,16.81,0,0,0-1.1-2.25,22.72,22.72,0,0,0-1.73-2.53,32.09,32.09,0,0,0-2.88-3.21c-1.17-1.15-2.55-2.38-4.07-3.63s-3.14-2.52-4.74-3.78-3.15-2.52-4.49-3.69a42.91,42.91,0,0,1-3.44-3.32,17.6,17.6,0,0,1-3.52-5.3,10.69,10.69,0,0,1-.64-2.21s1.32.46,2.71.83,2.82.62,2.82.62a15.26,15.26,0,0,0,3.38,5.3q1,1.17,2.52,2.52c1,.9,2.1,1.84,3.31,2.83,1.83,1.47,3.84,3,5.71,4.48,1.41,1.11,2.71,2.17,3.84,3.14S139.27,33.25,140,34C141.46,35.44,142.17,36.36,142.18,36.35Z" transform="translate(0 0)"/><path class="cls-1" d="M138.79,8.34a2.91,2.91,0,0,1,.35-3,10.34,10.34,0,0,1,3.39-3.27A7.53,7.53,0,0,1,146.17.67c.94,0,1.21.46,1.06,1.35a11,11,0,0,1-1.35,3.18,11.89,11.89,0,0,1-2.17,3A4,4,0,0,1,141,9.44,2.31,2.31,0,0,1,138.79,8.34Zm5.2,4.13a10.13,10.13,0,0,0,.65,1.89,18.1,18.1,0,0,0,3.5,4.95,50.18,50.18,0,0,0,4.13,3.86c.91.77,1.94,1.62,3.08,2.55s2.4,1.93,3.72,3S161.74,31,163,32.11s2.48,2.33,3.52,3.48a26.54,26.54,0,0,1,4.31,6,15.48,15.48,0,0,1,1.78,7,14.2,14.2,0,0,1-.15,2.08s-2.1-.66-4.16-1.2-4.08-1-4.08-1a13.63,13.63,0,0,0,.11-2.08,14.73,14.73,0,0,0-1.79-6.59,25.52,25.52,0,0,0-3.7-5.23c-.86-1-1.84-2-2.9-3s-2.19-2-3.35-3-2.29-1.93-3.36-2.82-2.06-1.73-3-2.51a52.21,52.21,0,0,1-4.07-3.91,17.49,17.49,0,0,1-3.36-5,10.33,10.33,0,0,1-.59-1.9l2.84-.09Z" transform="translate(0 0)"/><path class="cls-1" d="M194.12,31.13a14.53,14.53,0,0,0-1.92.86c-.54.29-1.13.66-1.78,1.05a15.64,15.64,0,0,1-2.28,1.09c-1.2.39-2.45.8-3.69,1.07a37.86,37.86,0,0,1-5,.51c1.45,1.27,2.71,2.47,3.82,3.56s2.05,2.1,2.88,3a43.71,43.71,0,0,0,4.15,4.08c2.38,1.92,4.5,2.58,6.57,2.09a3.58,3.58,0,0,0,3-2.15c.4-1.14,0-3-1.82-5.41a16.28,16.28,0,0,0,2.46-1.38c1.08-.77,2-1.55,2-1.55a33.13,33.13,0,0,1,3.68,4.12,14.11,14.11,0,0,1,1.94,3.42,5.65,5.65,0,0,1-.24,5.05,7.53,7.53,0,0,1-3.95,2.91,26.16,26.16,0,0,1-6,1.36,19.62,19.62,0,0,1-5.21-.1,17.24,17.24,0,0,1-4.57-1.38,15.11,15.11,0,0,1-3.83-2.79A34.32,34.32,0,0,1,180.64,46c-.67-1-1.43-2-2.34-3.24s-2-2.52-3.26-3.93-2.81-2.94-4.53-4.5-3.62-3.14-5.51-4.67-3.62-2.89-5-4.07-2.58-2.19-3.46-3.06a14,14,0,0,1-3.22-4.22,4,4,0,0,1-.25-2.78,4.17,4.17,0,0,1,1.41-2A7.26,7.26,0,0,1,157,12.24a12.65,12.65,0,0,1,3.29-.48,15.4,15.4,0,0,1,3.51.32,19.66,19.66,0,0,1,3.6,1.1,31.36,31.36,0,0,1,3.77,1.8c1.29.71,2.63,1.54,4.11,2.51s3.08,2.11,4.91,3.44,4.19,3,7.21,5.21C189.58,27.75,192,29.46,194.12,31.13Zm-17-7.15c-1.63-1.24-3.06-2.27-4.36-3.12a28.39,28.39,0,0,0-3.63-2.06,12.81,12.81,0,0,0-5.78-1.47c-1.57.06-2.46.63-2.46,1.75a4.18,4.18,0,0,0,1,2.22,24.68,24.68,0,0,0,3.64,3.56l2,0c1.21,0,2.85.05,4.43,0a23.52,23.52,0,0,0,3.64-.57Z" transform="translate(0 0)"/><path class="cls-1" d="M219.48,12.07c.12,0,5.83,8.47,11.15,15.74,1.08,1.46,2.15,2.89,3.17,4.22,1.54,2,3,3.8,4.06,5.12l1.73,2.14a16.36,16.36,0,0,0-3,.77,16,16,0,0,0-2.42,1.22s-2.82-2.13-7.1-5.17c-2.14-1.51-4.79-3.35-7.59-5.26l-8.13-5.52c-4.93-3.35-8-5.63-8-5.63s.49.59,1.45,1.64,2.48,2.6,4.49,4.51c1,.95,2.16,2,3.4,3.15l3.88,3.53c1.31,1.21,2.59,2.41,3.76,3.55s2.24,2.22,3.16,3.21a52.63,52.63,0,0,1,5,6.27,29.49,29.49,0,0,1-2.71,1.25,25.68,25.68,0,0,1-3.07,1s-.74-.74-2.25-2.1c-.76-.69-1.8-1.61-3.16-2.75s-3.08-2.52-5.21-4.12-4.76-3.48-7.7-5.46c-1.47-1-3-2-4.51-3s-3-2-4.49-2.9c-2.93-1.88-5.57-3.59-7.77-5.08-2.68-1.8-4.77-3.32-6.38-4.58s-2.81-2.31-3.72-3.17a26.1,26.1,0,0,1-2.62-2.83l3.44,0,3.51,0A37.47,37.47,0,0,0,187.13,17c.92.77,2,1.65,3.35,2.65s2.88,2.11,4.63,3.33,3.67,2.52,5.61,3.83l5.73,3.87c1.81,1.23,3.47,2.38,4.93,3.4s2.7,1.92,3.69,2.65c2,1.45,3.06,2.28,3.06,2.28s-.88-.9-2.49-2.44c-.81-.76-1.82-1.7-3-2.75s-2.5-2.23-3.94-3.48-3-2.55-4.41-3.84-2.85-2.55-4.05-3.71-2.22-2.24-3.08-3.22a31,31,0,0,1-2-2.6,28.38,28.38,0,0,1-2.87-5.21c2.6,0,5.24,0,8,0,0,0,2.34,2.22,6.15,5.18,1.9,1.48,4.15,3.15,6.53,4.86s5,3.51,7.31,5.14c4.72,3.28,8.28,5.79,8.28,5.79s-2.53-2.63-5.42-5.84c-1.33-1.53-2.71-3.2-4-4.87-4-5-7.44-10.11-7.44-10.12Z" transform="translate(0 0)"/></g></g></svg>