<svg xmlns="http://www.w3.org/2000/svg" viewBox="0 0 600 600" style="enable-background:new 0 0 600 600" xml:space="preserve"><path d="M4.75.716C3.237.945 2 1.665 2 2.316c0 .856 4.082 1.196 14.75 1.227 13.99.041 15.162.201 22.75 3.103 10.765 4.117 20.791 10.212 37.242 22.641 24.778 18.721 35.68 24.891 50.758 28.729 12.511 3.184 23.052 3.473 52.602 1.44 31.195-2.145 44.525-1.434 59.063 3.152 20.465 6.456 33.915 16.028 65.519 46.628 31.704 30.698 46.041 41.066 66.076 47.784 7.584 2.542 11.984 3.372 19.875 3.749 19.559.932 30.798-3.297 60.177-22.645 29.691-19.554 38.244-22.996 58.688-23.62l12-.366-11.17.88c-19.826 1.561-29.942 6.045-59.088 26.195-28.263 19.539-38.41 23.743-57.38 23.772-19.316.03-40.966-9.054-62.832-26.363-3.559-2.817-16.159-14.507-28-25.979C279.09 89.452 269.103 80.97 258 74.401c-22.688-13.424-43.91-16.104-85.082-10.742-27.006 3.517-45.165 3.682-56.313.512-12.203-3.469-21.048-8.02-41.132-21.162C54.308 29.16 41.54 22.627 31.5 20.51 20.49 18.189 2 18.735 2 21.381c0 .771 4.433 1.133 14.25 1.165 13.556.044 14.661.202 22.693 3.251 9.61 3.647 16.208 7.418 37.497 21.431 17.116 11.266 25.675 15.608 38.261 19.411 12.101 3.656 30.596 3.763 54.799.316 13.343-1.901 21.088-2.414 36-2.384 22.017.044 28.645 1.368 44 8.789 13.186 6.373 22.691 13.968 47.119 37.651 38.068 36.907 54.961 48.436 80.815 55.156 11.501 2.989 28.935 2.272 39.566-1.628 10.837-3.975 22.005-10.619 41-24.391 1.925-1.396 2.971-1.943 2.323-1.216-.647.727-6.722 5.313-13.5 10.193-13.801 9.935-27.109 16.955-36.823 19.424-9.044 2.299-23.482 2.113-33.198-.428-26.248-6.863-43.457-18.35-78.655-52.501-27.724-26.899-39.224-35.737-55.647-42.768-12.373-5.297-18.538-6.308-38-6.235-16.472.062-20.037.424-42 4.255-44.7 7.798-56.946 6.069-91-12.846-19.753-10.971-26.988-14.48-35-16.974-12.236-3.81-32.547-3.761-33.287.08-.265 1.378.434 1.459 5.491.635 11.041-1.798 25.125.518 37.578 6.18 2.629 1.196 10.036 5.115 16.459 8.709 28.147 15.75 39.11 20.021 54.259 21.142 12.73.941 25.097-.065 45.5-3.7C184.608 70.159 194.403 69 205.593 69c17.673 0 34.042 4.36 48.191 12.836 10.537 6.311 21.369 15.545 44.042 37.542 24.082 23.364 38.114 34.427 53.468 42.153 25.057 12.609 46.234 15 66.699 7.531 10.771-3.931 24.241-12.309 44.757-27.839 1.788-1.353 3.25-2.221 3.25-1.928 0 .942-26.151 19.948-33.64 24.449-3.982 2.394-10.98 5.784-15.55 7.534-7.965 3.049-8.911 3.181-22.81 3.172-14.15-.01-14.766-.101-25.5-3.784-17.526-6.012-33.216-15.034-49-28.175-4.4-3.663-17-15.256-28-25.762-22.584-21.571-32.994-29.761-46-36.195-22.547-11.154-42.71-12.16-78.636-3.925-56.683 12.993-64.457 12.666-101.152-4.263-18.404-8.49-24.255-10.813-32.376-12.853C21.757 56.583 0 57.34 0 60.652c0 1.276 1.035 1.38 6.75.678 9.205-1.132 19.323-.682 26.643 1.185 5.729 1.461 10.683 3.503 39.645 16.343 28.052 12.436 41.564 12.868 85.278 2.723 28.406-6.592 30.886-6.962 46.684-6.958 17.673.005 24.557 1.497 38.5 8.347 13.57 6.667 24.219 14.992 45.766 35.776 21.428 20.671 30.01 28.149 40.517 35.307 8.891 6.057 11.519 8.322 5.717 4.926-9.436-5.521-23.39-17.063-43.5-35.981-24.074-22.646-34.558-30.993-47-37.419-14.693-7.589-21.073-9.074-39-9.077-17.625-.002-23.414.991-47.947 8.225-26.048 7.681-35.767 10.092-45.716 11.345-17.342 2.183-27.537.313-57.018-10.455-19.809-7.236-28.834-9.039-41.778-8.344-11.008.59-13.665 1.24-12.927 3.164.375.977 1.692 1.049 5.687.311 6.718-1.242 22.598-.367 29.951 1.65 3.163.868 12.613 4.076 21 7.131 36.882 13.431 49.969 13.563 91.748.922 27.353-8.276 37.626-10.476 52.032-11.142 20.148-.931 34.358 2.943 51.244 13.969 10.861 7.092 17.474 12.693 38.041 32.222 19.017 18.057 27.842 25.57 37.933 32.295 3.712 2.474 6.75 4.684 6.75 4.911 0 .542-1.137-.147-9.743-5.909-9.311-6.233-21.566-16.528-37.257-31.297-31.006-29.185-45.271-38.428-65.942-42.725-20.205-4.201-37.537-1.176-78.551 13.711-29.971 10.879-38.136 12.808-54.007 12.764-10.171-.028-13.791-.507-23.75-3.142l-23.5-6.217c-9.408-2.489-13.943-3.137-22.75-3.25C6.893 96.479 1 97.408 1 99.557c0 1.178.836 1.317 4.25.705 9.54-1.71 24.703-.628 36.75 2.622 6.325 1.707 15.689 4.225 20.81 5.596 14.273 3.823 25.349 4.874 36.866 3.499 12.055-1.439 21.057-4.024 47.119-13.527 40.654-14.823 58.933-17.43 80.178-11.431 16.707 4.717 29.742 13.53 55.684 37.646 21.075 19.592 28.14 25.684 36.9 31.818 10.563 7.396 11.561 8.906 1.443 2.185-7.916-5.259-22.09-16.993-37-30.633-26.11-23.885-38.221-32.28-54.5-37.777-7.392-2.497-9.253-2.704-24.5-2.73-22.633-.039-27.794 1.456-71.5 20.706-28.145 12.397-38.199 15.131-55.5 15.093-10.3-.023-15.72-.67-30.8-3.678C32.918 116.802 26.523 116 18.075 116 5.967 116 1 116.697 1 118.396c0 .823 3.876 1.046 13.75.791 12.721-.328 15.135-.073 32.25 3.404 15.461 3.14 20.554 3.761 31 3.778 18.548.031 29.972-3.258 63.205-18.194 32.227-14.483 45.019-18.118 63.885-18.153 20.895-.039 36.221 5.93 55.91 21.778 4.767 3.837 32.776 28.727 43 38.211 7.575 7.027-6.629-4.536-21.5-17.504-18.554-16.178-23.315-20.044-31.309-25.419-23.821-16.019-47.367-18.909-76.514-9.393-4.497 1.468-22.127 9.682-39.177 18.253-29.681 14.921-41.597 19.841-53.386 22.045-8.382 1.567-24.189 1.187-40.614-.977-21.332-2.809-41.5-2.559-41.5.514 0 .97 2.806 1.143 12.25.756 9.124-.375 16.358.035 28.349 1.605 36.522 4.784 50.584 2.154 85.639-16.021 37.475-19.43 50.062-24.691 65.522-27.387 17.291-3.016 30.067-1.211 45.74 6.462 12.028 5.888 21.266 12.645 40.5 29.624 17.065 15.064 26.977 23.057 36.25 29.231 7.52 5.006 8.867 6.466 2.75 2.98-7.908-4.507-21.147-14.533-38.001-28.78-20.831-17.609-30.755-24.805-41.4-30.021-11.628-5.698-18.971-7.349-32.599-7.328-22.634.035-36.021 5.468-80.962 32.857-17.287 10.536-33.782 18.599-44.038 21.526-9.924 2.832-27.603 3.58-47.67 2.016C15.369 153.728 3 154.339 3 156.498c0 .99 2.641 1.263 11.25 1.162 6.188-.073 20.046.267 30.797.755 21.94.997 27.553.372 41.953-4.669 11.878-4.158 19.241-8.012 44.921-23.513 25.069-15.132 38.659-21.919 51.73-25.836 7.373-2.21 10.851-2.66 20.849-2.701 24.502-.1 35.502 5.519 74.063 37.834 21.29 17.841 32.123 25.507 46.9 33.186 5.52 2.87 9.692 5.232 9.27 5.25-.421.019-5.635-2.408-11.586-5.392-13.458-6.75-28.059-16.492-43.647-29.125-29.3-23.744-43.849-32.61-59.064-35.995-11.708-2.605-27.109-1.668-39.147 2.383-16.067 5.405-26.845 11.524-56.858 32.276-22.217 15.361-33.662 22.058-44.246 25.888-15.231 5.511-20.376 6.191-44.685 5.912-29.664-.34-32.5-.213-32.5 1.456 0 1.132 5.309 1.339 30.75 1.196 28.718-.161 31.246-.321 38.25-2.422 11.659-3.497 28.256-11.954 42.5-21.654 32.376-22.049 40.713-27.413 50.104-32.237 15.099-7.756 23.803-10.338 36.999-10.979 14.07-.683 22.966 1.167 34.903 7.258 10.5 5.358 16.632 9.674 37.655 26.506 18.707 14.978 27.967 21.531 39.817 28.178 11.312 6.345 9.232 6.144-2.768-.268-11.514-6.152-20.508-12.148-38.293-25.529-32.396-24.374-44.187-30.113-63.917-31.113-8.589-.436-12.127-.143-19.44 1.608-17.964 4.3-33.648 13.464-67.151 39.236-30.234 23.257-42.428 30.478-59.211 35.062-6.65 1.817-11.272 2.163-33.948 2.543-22.461.377-26.25.657-26.25 1.939 0 1.305 3.459 1.444 26.75 1.071 25.51-.408 27.158-.552 35.549-3.106 18.015-5.482 29.593-12.401 59.701-35.673C164.118 126.749 183.744 117 205.5 117c18.116 0 33.2 6.761 60.5 27.116 33.966 25.325 45.425 31.976 71.5 41.498 4.95 1.807 8.488 3.309 7.861 3.336-1.55.068-22.139-7.106-31.294-10.904-12.127-5.031-22.597-11.18-48.266-28.348-32.961-22.045-44.173-26.532-63.301-25.332-23.934 1.502-40.587 10.747-82.817 45.976-22.811 19.028-34.363 27.232-46.085 32.725-14.31 6.706-21.823 8.051-48.348 8.655-18.796.428-23.25.793-23.25 1.904 0 1.114 3.36 1.373 17.75 1.371 21.609-.003 32.927-1.285 44.75-5.068 16.176-5.177 28.34-13.205 60.11-39.674 24.28-20.229 33.214-26.743 45.518-33.185 14.074-7.369 22.106-9.539 35.372-9.556 6.387-.008 13.097.57 16 1.379 7.938 2.211 22.188 9.373 32.5 16.336 5.225 3.528 15.165 10.244 22.088 14.924 13.996 9.462 30.538 18.296 44.912 23.984 12.598 4.985 10.149 4.872-4.595-.212-16.851-5.81-29.036-11.837-52.405-25.921-11.275-6.796-23.786-13.876-27.802-15.734-21.429-9.915-41.774-9.626-63.026.895-12.674 6.274-26.57 16.719-49.672 37.334-25.568 22.815-32.846 28.826-42.324 34.956-18.143 11.735-28.663 14.482-58.426 15.257-18.415.479-21.75.796-21.75 2.066 0 1.305 2.82 1.423 21.75.906 22.849-.623 29.762-1.636 41.603-6.092 14.41-5.424 27.978-15.137 54.647-39.119 30.688-27.596 43.172-37.01 58.261-43.936 11.312-5.191 20.067-6.927 31.523-6.25 15.578.922 24.681 4.681 53.216 21.978 9.075 5.501 21.675 12.583 28 15.737 10.43 5.201 15.724 7.334 34.5 13.902 9.167 3.207.773 1.707-13.472-2.408-18.639-5.383-28.029-9.157-50.909-20.461-32.395-16.004-38.517-18.044-54.079-18.02-25.937.04-45.091 11.185-86.54 50.355-27.455 25.946-38.923 34.98-53 41.758-13.532 6.515-21.03 7.939-45.25 8.593-17.967.484-21.25.805-21.25 2.073 0 1.305 2.761 1.422 21.25.9 14.003-.395 23.467-1.137 27.75-2.175 21.85-5.296 35.824-14.535 69.046-45.649 31.548-29.546 42.123-37.921 57.288-45.367 12.902-6.335 19.555-7.801 33.09-7.289 14.473.548 20.612 2.66 50.076 17.231 12.65 6.256 27.499 13.039 32.999 15.074 10.3 3.812 37.298 10.993 52.776 14.038 4.826.95 8.608 1.894 8.403 2.098-.733.733-52.642-8.681-63.962-11.599-6.359-1.64-16.997-5.023-23.639-7.519l-23.842-8.959c-16.46-6.186-26.075-7.976-39.189-7.293-12.071.629-19.676 2.805-31.046 8.882-15.443 8.253-24.883 15.98-56.803 46.489-25.065 23.959-36.416 33.045-48.697 38.982-14.262 6.895-21.854 8.455-44.25 9.092-15.306.435-19.25.826-19.25 1.909C2 271.721 4.821 272 15.776 272c23.987 0 37.126-2.53 51.897-9.994 11.676-5.9 22.799-14.688 43.114-34.064 26.654-25.422 37.659-35.227 47.213-42.063C175.163 173.597 190.096 168 205.702 168c11.828 0 21.473 2.251 39.298 9.172 34.365 13.343 45.524 16.379 84.207 22.908 14.139 2.387 25.543 4.504 25.342 4.704-.2.201-6.143-.323-13.207-1.164-7.063-.84-21.842-2.245-32.842-3.121-27.551-2.194-37.401-3.778-62.384-10.032-25.821-6.464-37.691-8.031-49.048-6.476-10.357 1.418-16.934 3.413-25.566 7.757-15.44 7.77-27.146 17.338-58.776 48.045-24.749 24.027-35.874 33.069-48.226 39.196-13.322 6.609-21.002 8.127-44.25 8.744-16.178.43-20.25.812-20.25 1.902C0 290.727 2.96 291 14.776 291c25.105 0 36.562-2.207 52.334-10.082 11.814-5.898 21.973-14.21 48.247-39.473 32.501-31.249 41.535-38.695 56.143-46.272 20.351-10.555 36.283-11.266 68.5-3.054 27.021 6.888 38.847 8.851 68.73 11.409 15.714 1.346 38.966 3.849 51.671 5.562 39.891 5.382 56.449 3.53 76.224-8.525 4.57-2.786 12.036-8.125 16.592-11.864 4.556-3.74 6.123-4.771 3.482-2.292-12.706 11.931-28.173 21.179-41.412 24.761-9.843 2.663-28.964 2.824-47.787.403-23.192-2.983-46.88-3.153-72-.514-26.501 2.783-45.467 2.925-67 .499-28.279-3.186-44.459-1.199-61.973 7.61-15.501 7.797-25.597 16.05-56.027 45.801-18.64 18.224-32.994 30.954-38.242 33.915-1.381.779-1.498 1.254-.543 2.219 1.948 1.967 14.105-8.043 37.772-31.103 23.901-23.288 34.189-32.544 43.513-39.15 23.543-16.681 40.722-20.329 76.293-16.202 20.093 2.332 40.226 2.155 66.207-.582 24.6-2.592 47.866-2.488 71.5.319 28.354 3.368 39.691 2.982 53.849-1.834 14.362-4.884 22.773-10.536 46.117-30.986 18.033-15.799 22.896-19.538 32.663-25.12 7.93-4.532 18.758-8.516 22.726-8.362 1.18.046-.55.735-3.843 1.531-12.534 3.03-27.298 12.17-44.553 27.58-27.696 24.736-36.583 31.299-48.856 36.078-15.482 6.029-24.258 6.671-56.385 4.127-36.168-2.864-47.122-1.263-90.218 13.184-27.713 9.29-29.358 9.561-63.5 10.45-32.906.857-36.895 1.478-50.524 7.865-15.394 7.214-28.375 17.321-49.335 38.413-7.838 7.887-11.936 12.698-11.202 13.151.703.435 6.948-4.937 15.936-13.708 18.495-18.05 30.558-27.415 43.507-33.777 15.72-7.724 17.956-8.112 51.618-8.954 35.034-.876 36.295-1.096 69-12.054 37.478-12.558 50.237-14.301 84.718-11.57 25.977 2.057 32.71 2.002 44.154-.359 17.607-3.633 30.082-11.188 54.572-33.051 18.205-16.252 27.284-23.29 36.556-28.337 12.192-6.638 28.052-9.343 45.5-7.762 8.942.81 8.904.816-6 .977-17.566.19-24.622 1.58-36 7.09-10.425 5.049-20.686 12.808-38.5 29.114-23.465 21.478-35.709 29.624-50.811 33.809-10.709 2.968-20.043 3.43-43.293 2.144-40.573-2.245-53.051.821-92.193 22.649-21.122 11.779-30.732 16.173-40.99 18.74-8.445 2.114-25.282 3.549-41.875 3.571-25.969.033-40.775 5.485-63.415 23.348-6.159 4.86-8.349 7.142-7.587 7.904.762.762 2.121.233 4.707-1.832 10.921-8.724 21.759-16.076 27.957-18.962 12.159-5.662 16.945-6.501 42.661-7.477 39.833-1.512 44.505-2.879 82.761-24.212 35.59-19.846 48.585-22.908 87.974-20.729 24.14 1.336 32.962.817 44.901-2.64 15.278-4.424 26.345-11.534 46.63-29.959 25.044-22.746 30.413-26.91 41.927-32.513 12.506-6.086 19.877-7.29 40.04-6.543 9.408.349 22.133.914 28.276 1.258 13.161.734 22.33-.14 22.33-2.129 0-.748-1.013-1.554-2.25-1.792-1.929-.372-1.858-.453.5-.57 3.209-.159 3.282-.395 1.135-3.671-1.36-2.076-1.386-2.465-.166-2.465 1.173 0 1.459-2.089 1.505-11 .032-6.05-.343-11-.833-11-.49 0-.891-.93-.891-2.067 0-1.698-.403-1.935-2.25-1.324-1.237.408-7.425.692-13.75.631-9.143-.09-14.984-.858-28.5-3.752-32.039-6.859-42.519-7.77-57.244-4.977-14.302 2.713-23.42 7.265-49.75 24.84-23.909 15.958-35.749 20.605-52.568 20.634-17.004.03-36.132-7.564-54.938-21.81-5.775-4.374-20.561-17.685-32.858-29.58-25.083-24.264-37.925-34.511-51.429-41.042-19.424-9.392-35.377-11.646-67.144-9.486-29.122 1.981-49.168 1.806-57.985-.505C113.907 51.454 103.472 45.749 82 29.55 57.679 11.201 47.526 5.331 34.226 1.93 27.098.107 12.689-.486 4.75.716m66.876.08c-.574.929 25.656 23.558 35.874 30.948 11.985 8.669 25.321 14.51 39.82 17.444 4.376.885 15.664 1.172 38.68.981 35.076-.289 44.99.461 58.799 4.452 20.696 5.981 36.467 16.582 64.968 43.665 6.491 6.168 15.161 14.198 19.267 17.844 28.174 25.02 54.814 34.918 78.966 29.339 11.106-2.565 19.155-6.32 39.433-18.393 38.109-22.689 51.918-25.012 92.137-15.495 8.211 1.943 17.855 4.199 21.43 5.013 8.096 1.843 28.176 2.872 33.426 1.713 2.16-.476 4.109-1.413 4.332-2.082.31-.929-2.046-1.066-9.998-.579-12.236.748-21.26-.393-40.573-5.133-23.039-5.654-30.839-6.88-43.687-6.866-19.384.02-29.543 3.642-58.5 20.856-19.352 11.504-26.603 14.966-36.817 17.578-9.546 2.442-19.501 2.428-29.797-.04-19.963-4.787-33.594-14.014-66.819-45.233-23.894-22.45-34.738-30.848-49.284-38.168-19.532-9.829-34.183-12.139-71.783-11.318-31.315.684-43.019-.254-55.993-4.488-15.222-4.967-23.242-10.163-47.309-30.656C80.332 5.48 73.496 0 73.007 0c-.489 0-1.11.358-1.381.796m45.374.6c0 3.076 14.928 13.853 26.759 19.319 4.127 1.907 11.832 4.597 17.122 5.978 8.981 2.345 11.972 2.568 45.119 3.371 62.859 1.521 68.378 2.846 120.5 28.933 36.328 18.183 45.083 21.51 60 22.807 11.663 1.015 22.773-.122 43.553-4.456 17.392-3.628 19.448-3.846 35.947-3.818 15.87.027 18.525.292 28.5 2.849 6.05 1.55 21.29 6.624 33.867 11.275 31.869 11.785 39.341 13.705 53.633 13.783 12.787.07 17-.691 17-3.073 0-1.176-.593-1.431-2.25-.968-1.237.346-5.632.907-9.765 1.246-13.211 1.086-26.229-2.037-57.985-13.913-34.273-12.818-45.716-15.243-68-14.414-11.681.434-17.805 1.268-31.5 4.29-15.692 3.462-18.269 3.756-33.5 3.823-17.829.078-20.398-.386-36.5-6.587-4.4-1.695-18.272-8.493-30.827-15.107-47.623-25.09-60.392-28.286-117.173-29.327-42.517-.78-52.295-2.342-70-11.183-6.409-3.2-20.7-13.12-22.051-15.307C118.583-.484 117-.175 117 1.396m13 .041c0 1.751 14.609 11.615 22.127 14.941 3.004 1.328 8.591 3.33 12.417 4.448 13.701 4.005 21.355 4.604 55.693 4.357 48.657-.349 64.507 1.319 107.802 11.347 35.348 8.187 38.334 8.533 81.461 9.457 53.049 1.136 56.171 1.895 109.984 26.718 28.584 13.185 41.659 17.807 55.029 19.45 8.835 1.086 21.458.207 23.285-1.62 1.634-1.634-1.948-2.235-7.798-1.31-11.226 1.777-28.977-1.622-46.291-8.863-3.185-1.332-15.342-6.844-27.015-12.25-26.926-12.467-42.076-18.208-57.194-21.672-11.504-2.636-13.57-2.781-50-3.52-43.102-.875-45.886-1.197-81.498-9.43-29.249-6.763-44.326-9.226-67.41-11.011L242.5 21.08l23 .473c12.65.26 31.325 1.178 41.5 2.039 10.443.885 38.969 1.915 65.5 2.366 71.539 1.216 70.716.992 147.5 40.126 28.01 14.276 40.374 19.043 54.397 20.975C585.082 88.531 598 87.044 598 84.341c0-1.097-.738-1.359-2.75-.973-12.394 2.373-22.535 1.455-37.738-3.415-6.24-1.999-23.813-10.229-49.826-23.335-62.93-31.707-70.587-33.616-134.894-33.617-22.741-.001-40.568-.589-58.5-1.932-14.186-1.062-32.092-2.274-39.792-2.693l-14-.762L285 16.39c30.575-1.528 45.615-2.86 68.5-6.067 24.198-3.391 49.703-4.162 62-1.874 21.922 4.078 40.052 12.427 83 38.221 39.353 23.636 50.969 29.331 68.223 33.45 7.037 1.68 10.859 2.001 19.277 1.617 11.258-.513 14-1.163 14-3.319 0-1.025-.814-1.186-3.25-.643-1.788.399-8.65.703-15.25.675-11.181-.046-12.75-.305-23-3.803-14.057-4.796-28.404-12.338-62-32.589C455.711 17.471 438.09 9.5 415.669 5.492 403.296 3.28 377.087 3.888 357 6.854c-22.108 3.263-42.219 4.981-85.5 7.305-53.231 2.857-85.808 3.028-97.5.511-10.631-2.288-21.531-6.479-29.264-11.252-4.737-2.924-6.131-3.396-6.805-2.306-.675 1.092-1.101 1.118-2.089.13C134.123-.477 130-.339 130 1.437m17-.519c0 2.428 14.84 8.914 26.672 11.658 16.984 3.939 42.058 3.74 75.985-.602C275.299 8.692 303 2.857 303 .738c0-1.278-5.349-.571-20.12 2.662-15.906 3.481-44.958 7.298-65.212 8.567-26.714 1.674-44.882-.847-61.529-8.538C148.281-.202 147-.554 147 .918m20-.092c0 1.897 15.442 6.052 26.989 7.261 8.506.891 14.365.888 24.822-.012 16.524-1.423 36.36-5.088 36.939-6.825.564-1.692-1.513-1.581-13.309.709-23.715 4.605-48.192 4.818-63.441.554-8.711-2.436-12-2.899-12-1.687m290.419.306c-.385.622-.001 1.523.854 2.001.854.478 12.73 9.277 26.39 19.554 41.745 31.405 60.866 42.732 80.837 47.886 8.471 2.186 11.529 2.511 20 2.127 10.784-.488 13.5-1.149 13.5-3.282 0-1.025-.814-1.186-3.25-.643-1.788.399-8.2.686-14.25.638-9.174-.073-12.411-.549-19.5-2.87-19.186-6.28-37.901-17.832-78.492-48.447C470.313 8.143 459.202 0 458.817 0c-.384 0-1.014.509-1.398 1.132M548 1.055c0 1.555 9.549 5.656 18.5 7.945 11.328 2.897 31.5 2.57 31.5-.511 0-.953-2.567-1.127-10.847-.734-12.252.58-21.947-1.068-31.002-5.272C550.382-.195 548-.612 548 1.055m-445.463.885c-1.41 2.282 20.277 19.682 32.139 25.786 17.52 9.014 24.666 10.237 65.824 11.265 36.169.904 45.741 1.958 61 6.721 17.529 5.472 32.413 14.443 59.819 36.056 37.143 29.292 53.948 37.211 76.181 35.9 11.488-.678 21.959-3.763 42.61-12.558 25.547-10.88 31.506-12.405 48.89-12.517 16.98-.109 21.394.705 50.634 9.335 11.073 3.268 22.998 6.482 26.5 7.142 7.423 1.4 23.68 1.735 29.18.601 4.147-.854 4.66-3.378.585-2.874-1.32.163-7.349.343-13.399.4-12.101.114-20.713-1.608-45.768-9.15-20.527-6.179-29.326-8.034-41.232-8.693-18.797-1.041-29.483 1.433-57.182 13.238-20.794 8.862-28.937 11.298-40.402 12.09-15.458 1.067-31.072-4.037-49.014-16.023-4.621-3.087-16.29-11.81-25.93-19.386-21.579-16.955-32.286-24.117-45.363-30.343-20.525-9.772-32.64-11.803-77.109-12.931-36.071-.915-42.21-1.648-55.433-6.626-11-4.14-23.027-12.07-35.207-23.213-5.963-5.455-6.403-5.709-7.323-4.22m388.001-.002c-.319.517 3.817 4.865 9.191 9.664C535.385 43.44 559.267 56.149 582.98 55.9c10.247-.107 14.319-.814 13.829-2.4-.19-.613-4.382-.865-10.845-.65-13.461.448-20.96-1.314-35.464-8.331-13.572-6.566-24.511-14.275-43.66-30.769C498.698 6.738 491.83 1 491.577 1c-.252 0-.72.422-1.039.938m28.028-.045c-1.166 1.888 19.955 17.33 31.977 23.38 12.113 6.095 20.489 8.183 32.457 8.091 10.904-.084 15.439-1.046 14.209-3.012-.512-.82-2.373-.865-6.709-.161-18.633 3.027-40.369-5.239-63.949-24.318-6.26-5.066-7.066-5.467-7.985-3.98M481 130.393c0 .216-.698.661-1.552.989-.89.341-1.291.173-.941-.393.587-.951 2.493-1.406 2.493-.596m57.75 13.323c-1.513.229-3.987.229-5.5 0s-.275-.416 2.75-.416 4.263.187 2.75.416m-14.021.888c-.332.332-1.195.368-1.916.079-.798-.319-.561-.556.604-.604 1.054-.043 1.644.193 1.312.525m-6 1c-.332.332-1.195.368-1.916.079-.798-.319-.561-.556.604-.604 1.054-.043 1.644.193 1.312.525m13.535 2.1c-1.23.237-3.48.243-5 .014-1.52-.23-.514-.424 2.236-.432 2.75-.007 3.994.181 2.764.418M508 149c-.825.533-1.95.969-2.5.969s-.325-.436.5-.969c.825-.533 1.95-.969 2.5-.969s.325.436-.5.969m58.264 3.704c-1.23.237-3.48.243-5 .014-1.52-.23-.514-.424 2.236-.432 2.75-.007 3.994.181 2.764.418m-256.136 2.046c1.243 1.586 1.208 1.621-.378.378-1.666-1.307-2.195-2.128-1.372-2.128.207 0 .995.787 1.75 1.75M498 153.465c0 .255-1.012.955-2.25 1.555-2.161 1.047-2.173 1.029-.309-.465 2.04-1.634 2.559-1.855 2.559-1.09m90.25.275c-3.437.196-9.062.196-12.5 0-3.437-.195-.625-.355 6.25-.355s9.688.16 6.25.355m-53.75 5.187c-12.232 1.535-23.802 6.14-36 14.329-6.994 4.695-13.473 10.248-30 25.714-20.716 19.385-33.064 27.539-48.679 32.142-6.563 1.935-10.736 2.233-40.321 2.88-40.021.877-42.686 1.428-63.838 13.213-20.952 11.673-64.555 34.191-69.662 35.976-11.807 4.126-17.446 4.901-42 5.774-21.954.781-25.417 1.142-33.322 3.475-4.853 1.432-10.534 3.476-12.627 4.544-2.092 1.067-4.066 1.677-4.388 1.356-1.474-1.474-18.852 12.995-38.442 32.007-23.257 22.57-32.752 30.625-42.585 36.124-13.703 7.663-22.92 9.561-50.555 10.411-14.988.461-20.529.96-20.833 1.878-.319.963 3.026 1.25 14.563 1.25 30.339 0 46.706-3.476 61.689-13.103 11.062-7.107 15.065-10.569 38.361-33.171 19.273-18.699 36.553-33.206 38.282-32.138.43.266 3.092-.687 5.915-2.118 10.26-5.199 18.483-6.584 44.442-7.487 33.894-1.178 36.031-1.764 69-18.919 8.8-4.578 25-13.188 36-19.132 30.077-16.252 32.839-16.913 70.662-16.924 46.644-.014 55.812-3.802 93.338-38.558 18.564-17.194 28.858-25.113 38.852-29.889 14.252-6.81 24.71-7.929 57.784-6.182 17.872.944 29.864.246 29.864-1.737 0-.881-4.163-1.191-15.75-1.17-8.663.015-22.05-.27-29.75-.635-7.7-.364-16.7-.324-20 .09m-47.5 1.451c0 .207-.788.995-1.75 1.75-1.586 1.243-1.621 1.208-.378-.378 1.307-1.666 2.128-2.195 2.128-1.372m-141 4.173c0 .275-1.35-.198-3-1.051s-3-1.776-3-2.051c0-.275 1.35.198 3 1.051s3 1.776 3 2.051m-4 2c0 .275-1.35-.198-3-1.051s-3-1.776-3-2.051c0-.275 1.35.198 3 1.051s3 1.776 3 2.051m141-3.225c0 .179-1.238 1.416-2.75 2.75l-2.75 2.424 2.424-2.75c2.266-2.57 3.076-3.209 3.076-2.424m-157 6.244c0 .275-.9.019-2-.57s-2-1.295-2-1.57c0-.275.9-.019 2 .57s2 1.295 2 1.57m12.526-.763c-.307.308-1.114.001-1.793-.683-.98-.988-.865-1.102.56-.56.986.376 1.541.935 1.233 1.243M477 168.313c0 .172-1.462 1.635-3.25 3.25l-3.25 2.937 2.937-3.25c2.738-3.029 3.563-3.71 3.563-2.937m-7 5.984c0 .163-1.913 2.076-4.25 4.25l-4.25 3.953 3.953-4.25c3.676-3.952 4.547-4.71 4.547-3.953m72.841 2.88c-14.913 1.387-29.374 7.875-44.076 19.775-3.996 3.234-15.278 13.529-25.071 22.877-18.595 17.752-28.448 25.371-38.992 30.152-11.851 5.373-16.371 6.093-44.202 7.032-32.021 1.08-36.04 1.954-57 12.402-19.189 9.565-20.101 9.917-37.992 14.682-14.609 3.891-21.305 6.347-40.115 14.715-14.581 6.486-18.341 7.177-44.393 8.163-31.892 1.207-40.671 3.211-56.975 13.01-11.575 6.956-19.908 13.956-40.891 34.347-26.49 25.743-37.142 33.087-54.838 37.805-6.539 1.744-11.786 2.163-32.546 2.601-20.035.423-24.75.783-24.75 1.892 0 1.112 3.537 1.368 18.75 1.362 29.486-.013 41.241-1.95 55.652-9.173 10.089-5.056 19.035-12.351 40.067-32.675 22.27-21.52 32.852-30.011 45.679-36.654 13.234-6.854 21.815-8.49 49.774-9.49 29.418-1.053 28.028-.717 58.076-14.001 5.224-2.31 15.349-5.763 22.5-7.675 20.972-5.607 25.181-7.173 41.502-15.442 21.578-10.933 25.269-11.757 57.5-12.841 42.928-1.443 49.872-4.623 87.551-40.097 23.128-21.775 31.442-28.322 42.63-33.571 12.852-6.031 17.696-6.705 46.677-6.494 26.176.19 29.645-.067 29.638-2.196-.004-1.355-40.921-1.737-54.155-.506m-190.112 13.427c-.332.332-1.195.368-1.916.079-.798-.319-.561-.556.604-.604 1.054-.043 1.644.193 1.312.525M572 192.045c-30.194.777-36.294 1.871-49.787 8.924-11.49 6.007-19.36 12.372-40.481 32.738-27.437 26.456-38.749 34.418-55.911 39.351-5.99 1.722-11.774 2.266-31.821 2.993-14.735.534-27.241 1.488-31.378 2.393-4.147.908-13.873 4.85-24.5 9.93-9.692 4.634-19.309 8.956-21.372 9.604-2.062.647-3.75 1.778-3.75 2.512 0 1.41-2.733 1.983-14.5 3.04-9.468.85-22.848 5.434-35.416 12.133-20.269 10.803-25.861 12.039-60.084 13.276-19.954.721-24.556 1.184-30.5 3.069-17.827 5.653-28.11 13.062-57.232 41.236-17.195 16.635-28.528 25.513-38.768 30.372-12.878 6.11-16.336 6.652-46.488 7.297-23.323.498-27.532.814-27.776 2.087-.44 2.281 53.612 1.011 62.228-1.462 16.96-4.869 27.634-12.162 52.254-35.701 21.49-20.547 29.134-27.055 38.288-32.595 14.069-8.514 24.696-11.222 44.099-11.234 31.623-.021 44.823-2.795 65.895-13.849 14.985-7.861 23.947-10.748 37.5-12.08 13.834-1.359 25.817-4.689 24.614-6.84-.658-1.175 2.083-2.935 13.127-8.428 19.69-9.795 24.054-10.751 53.759-11.772 22.155-.762 25.361-1.097 33.5-3.499 17.677-5.216 28.173-12.607 55.705-39.22 20.927-20.23 31.351-28.588 42.092-33.755 12.343-5.936 17.357-6.736 45.203-7.212 27.319-.467 29.5-.68 29.5-2.872 0-.815-.337-1.399-.75-1.3-.413.1-12.675.488-27.25.864m-238.271.559c-.332.332-1.195.368-1.916.079-.798-.319-.561-.556.604-.604 1.054-.043 1.644.193 1.312.525m4 1c-.332.332-1.195.368-1.916.079-.798-.319-.561-.556.604-.604 1.054-.043 1.644.193 1.312.525m20 8c-.332.332-1.195.368-1.916.079-.798-.319-.561-.556.604-.604 1.054-.043 1.644.193 1.312.525m2.54 4.052c-.677.274-2.027.291-3 .037-.973-.254-.419-.478 1.231-.498 1.65-.02 2.446.187 1.769.461M570 209.03c-20.466.582-24.404.959-30.5 2.918-16.712 5.37-26.34 12.286-53.299 38.283-23.749 22.901-32.889 30.373-44.482 36.36-13.76 7.107-24.169 9.306-47.105 9.95-28.889.812-31.542 1.141-32.647 4.045-.504 1.328-1.491 2.404-2.192 2.392-1.702-.029-70.437 33.278-88.475 42.872-15.948 8.482-20.203 9.273-54.8 10.178-34.125.894-37.908 1.51-52 8.473-11.018 5.444-20.386 12.772-40.343 31.557-36.494 34.35-48.532 39.297-89.657 36.847-20.838-1.242-33.5-.682-33.5 1.481 0 .911 3.541 1.221 13.75 1.202 7.562-.014 21.85.172 31.75.414 16.499.403 18.667.249 26-1.84 17.822-5.077 28.177-12.041 54.459-36.623 20.051-18.756 28.791-25.534 39.541-30.667 13.706-6.545 16.705-7.016 50-7.856 37.739-.951 39.762-1.434 66.302-15.843 8.084-4.388 20.93-10.736 28.547-14.106 7.616-3.37 20.891-9.659 29.5-13.975 23.281-11.674 28.988-13.072 53.401-13.084 11.461-.006 14.75-.299 14.75-1.313 0-.849 2.698-1.758 7.713-2.601 15.802-2.655 30.303-9.376 44.004-20.396 4.238-3.409 16.364-14.583 26.946-24.832 22.305-21.603 29.458-27.305 41.837-33.35 12.539-6.124 20.425-7.514 42.708-7.527 20.321-.012 25.792-.568 25.792-2.62 0-.807-.924-1.295-2.25-1.189-1.237.1-12.825.482-25.75.85m2 22.017c-18.235.597-22.563 1.045-28.5 2.943-18.146 5.805-28.842 13.601-58.679 42.774-12.066 11.799-22.194 21.196-22.507 20.884-.312-.313-3.363 1.427-6.78 3.865-8.22 5.866-19.196 10.979-29.034 13.527-6.42 1.662-13.035 2.244-33.5 2.95-36.914 1.274-37.252 1.384-84.976 27.887-40.616 22.556-40.471 22.518-85.024 22.604-37.851.073-41.122.515-55.612 7.52-11.026 5.331-21.201 13.122-38.388 29.395-18.211 17.242-28.075 24.783-39.5 30.2-12.306 5.835-23.283 7.839-38.5 7.026-39.713-2.122-51-1.967-51 .7 0 .853 4.481 1.195 16.25 1.24 8.937.035 24.8.26 35.25.5 17.509.404 19.612.261 26.791-1.82 16.692-4.838 28.914-13.038 51.662-34.661 17.407-16.546 27.873-24.614 38.547-29.715 14.738-7.044 17.267-7.4 50.46-7.099 45.99.417 49.651-.551 92.886-24.567 45.115-25.061 44.573-24.885 80.654-26.173 13.75-.491 26.575-1.196 28.5-1.565 12.555-2.411 25.14-7.589 34.295-14.109 2.638-1.878 5.231-3.146 5.762-2.818.531.328 8.498-6.764 17.704-15.761 25.991-25.4 34.996-33.485 43.865-39.386 15.812-10.522 26.564-13.292 51.874-13.364 18.126-.052 23.5-.659 23.5-2.655 0-.804-.929-1.298-2.25-1.198-1.237.094-11.925.488-23.75.876m3 24.009c-23.418.809-28.042 1.747-41.5 8.416-11.137 5.519-19.739 11.975-33.624 25.236-6.576 6.279-11.305 10.065-12.163 9.736-.858-.33-6.128 3.896-13.563 10.875-18.521 17.384-31.727 26.274-46.498 31.299-10.48 3.565-17.63 4.525-33.549 4.505-36.401-.047-44.74 1.843-84.72 19.201-15.961 6.93-28.324 10.88-39.883 12.743-8.985 1.447-30.03 1.417-48.5-.07-38.72-3.118-54.65 3.201-91 36.096-31.377 28.393-44.623 34.958-70.5 34.936-7.15-.006-16.825-.461-21.5-1.012-9.968-1.175-32.968-1.325-34.696-.226-.692.44-1.05 2.327-.849 4.484.228 2.456-.07 3.725-.875 3.725-.874 0-1.212 2.561-1.189 9 .019 4.95.388 9 .821 9 .434 0 .788.675.788 1.5s-.45 1.5-1 1.5-1 .723-1 1.607c0 1.123.527 1.402 1.75.926.962-.375 6.475-.82 12.25-.988 10.328-.302 9.668-.159-4.75 1.028-6.033.497-7.25.894-7.25 2.361 0 1.589.568 1.67 5.75.82 7.428-1.217 21.369-.283 32.75 2.196 37.537 8.175 38.237 8.279 52.5 7.759 8.572-.313 15.508-1.112 19-2.191 9.235-2.853 24.782-10.927 39.5-20.514 15.707-10.231 31.269-18.166 39.5-20.14 7.601-1.824 23.075-1.564 31 .519 10.015 2.633 25.414 10.742 37 19.484 5.775 4.357 19.7 16.765 30.944 27.573 23.572 22.657 30.202 28.276 42.411 35.941 17.539 11.011 34.889 15.737 58.645 15.974 7.975.08 24.85-.247 37.5-.727 19.604-.743 24.383-.629 32.368.771 17.618 3.088 29.968 9.788 55.632 30.181 19.968 15.867 28.864 21.878 31.105 21.018 2.061-.791 2.441-.426-6.616-6.363-4.119-2.699-14.242-10.269-22.496-16.822-39.24-31.149-49.309-34.2-103.811-31.452-34.4 1.734-51.2-.421-69.263-8.886-16.634-7.795-26.728-15.86-58.919-47.077-28.269-27.413-48.263-39.826-70.483-43.758-6.975-1.235-10.184-1.304-17.723-.382-15.107 1.848-24.133 5.905-49.189 22.109-17.183 11.113-29.881 17.346-41.055 20.154C95.901 490.173 77.74 489.388 59 485c-7.425-1.739-18-3.988-23.5-4.999-5.5-1.01-8.65-1.868-7-1.905 1.65-.037 11.775 1.731 22.5 3.929 46.639 9.56 58.676 6.773 103.5-23.965 21.862-14.991 31.571-19.025 47.644-19.797 12.528-.602 21.851 1.115 34.085 6.274 16.91 7.132 30.579 17.347 54.771 40.933 9.075 8.847 19.811 19.149 23.858 22.892 17.124 15.84 33.539 25.462 51.713 30.312 8.884 2.371 11.772 2.656 27.429 2.708 10.938.035 23.312-.625 33-1.762 8.525-1 21.125-1.837 28-1.858 26.262-.083 36.54 4.009 72 28.667 17.603 12.24 27.709 17.675 38.215 20.554 11.732 3.214 34.785 2.764 34.785-.679 0-1.256-1.02-1.375-6.25-.733-23.648 2.905-36.795-1.698-68.75-24.071-23.418-16.396-34.271-21.98-48.739-25.075-9.954-2.13-30.026-2.12-48.761.024-31.461 3.599-48.412 3.056-64.771-2.077-19.816-6.217-30.758-13.874-59.62-41.72-26.174-25.253-38.554-35.762-50.532-42.898-17.599-10.483-30.997-14.715-46.667-14.739-18.711-.029-28.418 3.946-57.653 23.609-16.263 10.938-32.543 20.412-34.985 20.359-.425-.009 2.975-2.028 7.555-4.487 8.196-4.401 12.843-7.477 34.673-22.956 29.718-21.072 52.693-24.757 81.12-13.012 20.106 8.307 34.63 19.283 66.722 50.422 29.972 29.083 41.233 37.051 61.325 43.389 17.69 5.58 33.756 5.488 71.833-.413 17.636-2.733 21.773-3.045 35-2.645 21.662.657 29.926 3.694 60.456 22.217 24.092 14.617 35.226 18.595 51.454 18.384 11.154-.146 14.97-.901 15.383-3.047.274-1.419-.213-1.526-3.488-.766-5.127 1.19-19.78 1.119-25.164-.123-9.379-2.162-20.956-7.559-36.948-17.222-31.171-18.834-42.211-22.71-64.693-22.71-7.988-.001-18.205.784-26.5 2.034-7.425 1.12-18.225 2.739-24 3.6-14.463 2.155-35.419 2.086-45-.147-23.399-5.456-36.462-14.127-68.5-45.473-29.925-29.277-41.76-38.547-60.6-47.46-15.245-7.212-23.143-9.061-38.4-8.99-11.293.053-14.051.41-21 2.716-11.617 3.855-23.223 10.81-44.25 26.516-1.788 1.335-3.25 2.187-3.25 1.892 0-.765 23.357-17.606 30.521-22.006 3.312-2.034 9.162-5.016 13-6.627 23.722-9.956 52.305-4.829 82.081 14.723 11.985 7.87 19.102 13.959 42.157 36.068 10.593 10.158 23.272 21.673 28.176 25.588 14.05 11.218 29.618 18.566 45.84 21.635 7.96 1.506 32.916.661 43.225-1.464 4.125-.85 15.15-3.16 24.5-5.133 26.809-5.658 44.596-5.777 60.858-.406 3.378 1.116 15.817 6.702 27.642 12.414 26.96 13.024 33.044 14.964 47 14.988 11.832.02 16-.789 16-3.108 0-1.105-.532-1.381-1.75-.908-.962.375-5.575.924-10.25 1.222-13.668.871-22.313-1.716-49-14.663-12.375-6.004-26.55-12.152-31.5-13.663-8.19-2.5-10.44-2.749-25-2.771-15.627-.024-16.594.102-41.5 5.419-25.296 5.4-25.64 5.443-43 5.467-15.301.02-18.505-.265-25.5-2.271-18.978-5.443-33.062-15.077-59.421-40.651-30.31-29.407-41.544-38.36-60.567-48.271-5.507-2.87-9.665-5.232-9.24-5.25 1.598-.07 17.533 8.404 25.228 13.415 11.544 7.518 20.831 15.292 39.5 33.063 30.129 28.68 42.481 37.678 59.562 43.388 22.848 7.638 37.772 6.901 78.438-3.874 30.06-7.965 38.7-9.399 52.5-8.711 13.272.662 21.935 3.031 44.624 12.205 20.03 8.098 29.674 10.672 40.272 10.747 9.93.07 16.853-1.04 16.304-2.614-.221-.634-1.482-1.047-2.801-.917-1.32.129-6.674.304-11.899.388-11.853.191-19.042-1.688-42.595-11.134-21.904-8.785-30.123-10.965-43.905-11.649-13.74-.681-23.459.848-49 7.708-26.446 7.104-35.329 8.877-48 9.585-18.57 1.036-35.222-3.269-51.235-13.247-9.836-6.128-16.726-11.929-37.265-31.375-19.318-18.289-28.022-25.821-37.557-32.497-8.157-5.712-10.265-7.552-5.62-4.907 9.548 5.436 23.864 17.385 48.304 40.316 23.747 22.281 35.271 30.175 52.873 36.218 8.996 3.089 10.269 3.263 24 3.285 18.45.029 23.957-1.141 58.5-12.434C481.822 498.08 491.041 496 504.653 496c11.485 0 19.976 1.686 40.738 8.09 22.309 6.881 30.051 8.31 41.074 7.579 10.79-.715 13.535-1.405 13.535-3.402 0-1.082-.627-1.319-2.25-.848-1.237.358-6.316.921-11.285 1.25-11.108.737-18.864-.714-40.911-7.65-19.713-6.201-29.065-8.019-41.257-8.019-13.407 0-25.481 2.753-54.605 12.448-31.616 10.525-38.289 11.961-55.692 11.985-15.858.022-21.965-1.343-35.5-7.937-12.012-5.852-22.333-13.873-44.582-34.646-10.22-9.543-21.92-20.023-26-23.29-8.845-7.082-11.983-10.054-6.418-6.08 8.029 5.734 17.342 13.655 33 28.065 27.163 24.999 38.34 32.748 55.617 38.561 7.527 2.532 11.559 3.253 20.383 3.643 18.446.817 33.148-2.854 67-16.727 35.006-14.346 43.878-16.552 63.427-15.774 9.511.379 16.348 1.37 28.073 4.072 22.327 5.145 31.819 6.196 42.398 4.694 6.114-.867 8.602-1.625 8.602-2.617 0-1.684.007-1.683-9.493-.27-9.411 1.399-19.035.287-40.592-4.692-11.682-2.697-18.564-3.695-28.415-4.117-20.476-.879-30.085 1.467-64.775 15.816-33.165 13.717-48.455 17.533-66.225 16.528-24.403-1.382-39.76-9.822-72.022-39.586-18.379-16.956-26.806-24.101-36.099-30.607-11.39-7.974-11.311-8.722.121-1.143 8.955 5.937 18.201 13.476 36.332 29.626 21.304 18.976 29.525 25.107 41.668 31.075 12.648 6.217 21 8.185 34.589 8.151 18.768-.047 35.412-5.447 69.911-22.68 20.418-10.2 34.29-15.745 45.05-18.008 10.222-2.151 28.989-1.91 43.45.558 20.573 3.512 45.096 3.664 46.222.287.262-.786-3.336-.968-12.427-.629-10.49.39-15.819.009-29.579-2.115-19.335-2.985-37.242-3.389-48.216-1.089-11.33 2.374-23.206 7.1-45.773 18.213-33.004 16.254-44.711 20.501-61.08 22.16-27.878 2.826-46.242-5.809-82.647-38.863a735.386 735.386 0 0 0-27.035-23.357l-3.465-2.844 4 2.76c6.118 4.221 11.755 8.794 26.797 21.742 25.812 22.217 37.347 29.696 53.752 34.847 6.35 1.994 9.446 2.328 20.951 2.262 11.705-.068 14.69-.44 22.454-2.805 14.199-4.324 23.922-8.929 49.304-23.353 25.304-14.38 37.103-20.058 48.592-23.38 10.304-2.98 28.061-3.499 49.65-1.451 21.963 2.083 38.001 1.021 34.492-2.283-.615-.579-3.655-.562-7.992.044-5.257.735-11.819.548-26.35-.749-27.504-2.455-40.436-1.77-54.323 2.877-12.561 4.203-23.058 9.355-45.61 22.386-36.482 21.08-54.338 27.252-75.154 25.976-21.511-1.319-34.908-8.498-66.724-35.753-19.211-16.457-26.397-22.092-36.828-28.878-9.879-6.427-10.836-7.411-3.011-3.095 10.155 5.602 22.263 14.402 39.991 29.069 20.559 17.008 28.946 22.902 39.889 28.03 20.513 9.612 39.342 9.631 64.153.063 10.408-4.014 21.117-10.221 47.396-27.469 24.365-15.992 38.05-23.286 50.211-26.762 8.081-2.309 9.327-2.379 37.36-2.096 30.192.305 37.501-.105 37.499-2.104-.001-.896-8.308-1.172-33.75-1.12-36.842.075-37.12.109-53.147 6.527-10.093 4.041-14.813 6.776-39.602 22.945-42.337 27.617-57.088 34.022-78.5 34.089-10.676.033-16.431-1.041-25.955-4.844-12.778-5.102-18.249-8.948-53.22-37.41-11.683-9.508-20.4-15.622-30.484-21.382-4.313-2.464-7.458-4.482-6.991-4.487.468-.004 5.211 2.44 10.541 5.432 10.372 5.821 20.938 13.208 45.294 31.667 18.555 14.062 26.708 18.881 38.964 23.03 8.182 2.769 10.727 3.172 20.351 3.222 13.326.07 22.083-2.125 37.173-9.315 12.753-6.076 19.384-10.368 44.621-28.884 23.871-17.515 30.035-21.493 42.706-27.565 15.604-7.477 17.758-7.843 50.5-8.591 15.95-.364 29.112-.738 29.25-.832.138-.094.25-.746.25-1.45 0-1.326.401-1.322-43-.376-14.736.321-17.409.655-25 3.126-16.249 5.289-28.263 12.431-59 35.078-28.47 20.975-39.417 27.305-57 32.956-6.92 2.224-10.451 2.747-19 2.812-19.175.145-32.695-5.558-57.296-24.17-8.362-6.327-18.729-14.168-23.036-17.425-11.127-8.414-22.332-15.188-36.168-21.869-13.356-6.448-14.304-7.343-3.038-2.868 18.236 7.244 31.055 14.818 61.538 36.358 17.069 12.062 25.809 16.948 37.336 20.873 7.924 2.698 10.584 3.124 19.664 3.153 22.25.069 42.009-9.42 74.5-35.778 37.049-30.057 46.869-36.97 60.486-42.585 11.672-4.814 19.739-6.005 40.722-6.015 21.058-.009 29.292-.697 29.292-2.445 0-.875-5.801-1.089-22.75-.84-31.867.468-39.824 1.864-55.154 9.676-12.35 6.294-20.039 11.865-49.553 35.905-17.259 14.057-33.744 25.754-42.673 30.279-2.693 1.364-9.053 3.9-14.133 5.635-8.154 2.784-10.527 3.155-20.237 3.162-9.711.007-12.022-.35-19.722-3.049-10.846-3.801-19.502-8.736-36.778-20.97-29.086-20.595-44.024-29.414-60.756-35.867-3.991-1.539-7.084-2.97-6.874-3.181.601-.6 16.781 5.211 25.886 9.297 10.897 4.891 20.848 10.556 40.441 23.025 29.136 18.54 40.05 22.887 57.303 22.821 12.177-.046 19.634-1.788 31.5-7.356 14.449-6.78 27.266-16.349 55-41.063 21.893-19.51 34.847-29.1 48-35.536 14.172-6.934 20.769-8.202 47.25-9.08 17.909-.594 21.25-.941 21.25-2.205 0-1.308-2.715-1.41-21.25-.795-30.761 1.02-40.952 3.636-59.488 15.273-10.658 6.692-18.226 12.745-37.762 30.206-25.187 22.511-38.451 32.552-52 39.366-15.555 7.822-30.418 10.305-43.83 7.321-14.112-3.14-21.218-6.688-49.446-24.685-19.248-12.273-34.161-19.925-50.724-26.026-7.15-2.634-12.536-4.805-11.968-4.824 2.472-.084 25.829 7.227 34.856 10.909 5.439 2.219 15.114 6.803 21.5 10.188 29.389 15.574 38.198 19.877 46.112 22.525 7.532 2.519 9.924 2.843 21 2.843 10.56 0 13.586-.371 19.5-2.39 19.757-6.745 32.255-15.605 66.737-47.308 11.406-10.486 23.781-21.507 27.5-24.489 14.279-11.451 27.527-18.826 39.172-21.809 6.679-1.71 28.275-3.446 43.341-3.483 7.102-.017 8.75-.304 8.75-1.521 0-1.807-9.417-1.961-32-.521-16.798 1.071-23.366 2.581-34.706 7.98-14.965 7.125-25.393 15.068-51.205 39.006-9.027 8.371-19.588 17.953-23.471 21.295-24.467 21.058-44.532 30.762-63.528 30.725-14.603-.028-26.354-4.173-52.929-18.669-30.839-16.821-41.013-20.824-74.661-29.375-12.65-3.215-22.541-5.866-21.98-5.893 2.158-.102 43.543 8.208 54.48 10.939 14.991 3.744 25.302 7.446 45.748 16.424 26.304 11.551 40.498 15.361 53.241 14.293 23.04-1.931 42.914-13.586 74.986-43.974 30.736-29.122 39.58-36.923 49.031-43.249 18.198-12.18 29.294-15.294 57.744-16.205 14.339-.459 18.25-.872 18.25-1.93 0-1.049-2.484-1.344-11.25-1.337-25.637.019-40.069 2.611-54.25 9.742-14.682 7.384-22.057 13.368-54.999 44.626-31.217 29.622-45.214 39.734-64.001 46.239-6.846 2.371-9.587 2.772-19 2.779-15.415.012-20.997-1.69-57-17.384-20.779-9.058-35.066-13.079-72.5-20.406-6.875-1.346-11.907-2.483-11.182-2.526 3.908-.234 60.311 7.39 69.682 9.419 6.05 1.31 19.297 4.921 29.437 8.026 21.901 6.704 30.513 8.476 41.204 8.476 10.698 0 20.52-2.331 31.359-7.442 17.203-8.111 27.744-16.528 61.39-49.016 25.698-24.813 35.578-32.689 49.61-39.545 13.18-6.441 21.36-8.037 44.75-8.734 14.816-.441 18.75-.842 18.75-1.91 0-2.844-36.972-1.238-50.5 2.193-8.928 2.264-22.87 9.488-32.764 16.976-4.82 3.648-19.903 17.285-33.518 30.305-13.615 13.02-28.121 26.422-32.236 29.782-20.661 16.87-38.066 24.343-56.774 24.376-10.345.019-19.289-1.809-39.686-8.109-28.251-8.725-36.195-10.294-75.786-14.966-10.321-1.218-18.646-2.327-18.5-2.466.145-.138 17.139.126 37.764.586 38.72.864 40.679 1.049 70 6.62 30.961 5.882 50.703 2.447 74.288-12.927 11.188-7.292 19.528-14.581 43.81-38.287 28.669-27.99 39.788-36.83 55.315-43.98 6.447-2.969 9.72-4.047 17.831-5.873 1.509-.34 2.634-1.173 2.5-1.851-.185-.932 4.196-1.298 18.006-1.505 15.941-.238 18.25-.474 18.25-1.871 0-1.431-2.267-1.543-21.75-1.067-20.208.492-29.22 1.595-31.733 3.882-.614.559-.119 1.12 1.32 1.497 1.941.507 1.291 1.029-4.135 3.318-7.69 3.244-20.731 11.612-29.702 19.057-3.575 2.967-15.275 13.971-26 24.453-35.712 34.904-49.115 44.898-68.946 51.408-15.214 4.995-25.861 4.836-57.554-.858-8.8-1.581-17.575-3.137-19.5-3.456-1.925-.32-20.15-1.005-40.5-1.522-30.308-.769-40.798-1.426-58-3.632-25.541-3.276-45.499-3.667-56-1.098-8.841 2.163-23.067 9.191-31.5 15.561-3.575 2.701-13.25 10.834-21.5 18.074-16.187 14.205-30.861 24.646-39.287 27.952-8.429 3.308-7.439 2.442 3.294-2.882 11.675-5.79 17.637-10.202 37.993-28.113 8.25-7.259 18.15-15.442 22-18.185 9.405-6.7 21.482-12.428 30-14.23 9.168-1.939 26.632-1.904 45.121.09 18.155 1.958 41.609 2.155 54.379.457 5.225-.695 17.825-2.903 28-4.907l18.5-3.643 38.5-.02c33.026-.017 39.455-.264 45.214-1.733 21.625-5.518 35.611-15.065 68.118-46.496 28.159-27.229 37.189-35.108 45.948-40.094 15.245-8.678 26.183-11.15 49.388-11.161C595.314 279 598 278.644 598 276.579c0-.836-1.765-1.117-5.75-.914-3.163.161-12.5.488-20.75.727-17.517.507-24.799 2.227-38.442 9.079-8.736 4.387-20.078 12.268-24.347 16.915-1.216 1.324-11.887 11.793-23.712 23.263-35.053 33.998-46.871 41.985-72.499 48.996-1.65.451-20.325.832-41.5.846l-38.5.026-19 3.663c-10.45 2.014-22.825 4.207-27.5 4.871-12.172 1.73-35.803 1.499-55.392-.542-21.74-2.265-40.031-1.721-50.108 1.49-15.04 4.793-24.716 11.247-49.698 33.149-24.473 21.457-39.488 30.634-52.916 32.343-3.604.459-3.224.229 2.131-1.286 17.429-4.934 27.963-12.087 58.802-39.932 29.12-26.292 45.088-31.994 81.972-29.271 44.034 3.251 58.918.796 97.209-16.034 30.708-13.497 36.974-14.902 69.5-15.588 25.273-.533 33.347-1.69 45.5-6.522 13.778-5.478 28.051-15.722 47.672-34.216 5.028-4.74 8.436-7.276 8.858-6.594.418.677 4.246-2.346 9.828-7.762 20.376-19.771 32.816-27.953 50.142-32.98 3.213-.932 12.564-1.692 26.168-2.128 11.642-.373 21.475-.986 21.85-1.361.781-.783-.285-2.905-1.327-2.643-.38.095-9.916.492-21.191.882M92.872 299.673c-2.68 3.269-15.997 13.299-22.441 16.903-15.695 8.777-22.865 10.456-48.106 11.263-20.095.643-23.909 1.166-21.758 2.983 1.643 1.388 42.343-.453 48.663-2.201 9.223-2.551 20.294-7.568 27.905-12.644 9.062-6.045 20.917-16.084 20.256-17.153-.837-1.354-3.053-.937-4.519.849M61 300.608c-8.398 3.659-19.336 5.339-39.205 6.022C6.22 307.166 2 307.597 2 308.655c0 1.634 13.733 1.782 33.196.358 9.828-.72 14.863-1.648 22.287-4.11 5.275-1.749 9.434-3.652 9.242-4.229-.56-1.679-1.986-1.695-5.725-.066m46.488 10.461c-23.82 23.997-37.752 33.775-55.595 39.017-6.235 1.831-10.723 2.247-28.643 2.654-18.008.41-21.25.712-21.25 1.983 0 1.302 2.805 1.434 21.25.999 14.975-.354 23.17-.988 27.75-2.148 8.79-2.225 22.988-9.34 31.489-15.779 9.346-7.08 39.685-35.773 39.239-37.11-.844-2.533-2.919-1.02-14.24 10.384m150.262 83.62c-.962.252-2.537.252-3.5 0-.963-.251-.175-.457 1.75-.457s2.712.206 1.75.457m-12.5 1.973c-.687.278-1.812.278-2.5 0-.687-.277-.125-.504 1.25-.504s1.938.227 1.25.504m6 1c-.687.278-1.812.278-2.5 0-.687-.277-.125-.504 1.25-.504s1.938.227 1.25.504m-14.521.942c-.332.332-1.195.368-1.916.079-.798-.319-.561-.556.604-.604 1.054-.043 1.644.193 1.312.525m5 1c-.332.332-1.195.368-1.916.079-.798-.319-.561-.556.604-.604 1.054-.043 1.644.193 1.312.525m27 10c-.332.332-1.195.368-1.916.079-.798-.319-.561-.556.604-.604 1.054-.043 1.644.193 1.312.525M262 415c.825.533 1.05.969.5.969s-1.675-.436-2.5-.969c-.825-.533-1.05-.969-.5-.969s1.675.436 2.5.969m-54.75 8.706c-1.238.238-3.262.238-4.5 0-1.238-.239-.225-.434 2.25-.434s3.488.195 2.25.434m-11 .956c-.687.278-1.812.278-2.5 0-.687-.277-.125-.504 1.25-.504s1.938.227 1.25.504m22 0c-.687.278-1.812.278-2.5 0-.687-.277-.125-.504 1.25-.504s1.938.227 1.25.504m5.479.942c-.332.332-1.195.368-1.916.079-.798-.319-.561-.556.604-.604 1.054-.043 1.644.193 1.312.525M236 429c.825.533 1.05.969.5.969s-1.675-.436-2.5-.969c-.825-.533-1.05-.969-.5-.969s1.675.436 2.5.969m28 9.57c0 .275-.9.019-2-.57s-2-1.295-2-1.57c0-.275.9-.019 2 .57s2 1.295 2 1.57m7 0c0 .275-.9.019-2-.57s-2-1.295-2-1.57c0-.275.9-.019 2 .57s2 1.295 2 1.57M56.768 451.715c-1.503.228-4.203.232-6 .01-1.797-.223-.568-.41 2.732-.415 3.3-.006 4.771.176 3.268.405m12.96.015c-2.075.216-5.225.213-7-.008-1.776-.221-.078-.398 3.772-.394 3.85.005 5.302.185 3.228.402m16.001.874c-.332.332-1.195.368-1.916.079-.798-.319-.561-.556.604-.604 1.054-.043 1.644.193 1.312.525m-4 1c-.332.332-1.195.368-1.916.079-.798-.319-.561-.556.604-.604 1.054-.043 1.644.193 1.312.525M189 465.047c-7.287 1.883-18.452 7.09-43.797 20.425-14.398 7.577-24.908 11.132-36.949 12.5-12.207 1.387-23.473-.099-49.163-6.484-25.703-6.388-36.475-7.975-47.863-7.051C1.523 485.224 0 485.669 0 487.714c0 .89.582 1.277 1.431.951.788-.302 5.196-.855 9.797-1.228 10.998-.893 22.271.678 43.272 6.03 29.746 7.579 40.193 9.04 53.703 7.51 12.96-1.468 23.425-5.169 41.797-14.783 26.464-13.848 31.393-16.079 40.185-18.187 16.508-3.957 31.91-1.844 47.672 6.541 14.736 7.839 20.299 12.247 53.369 42.284 24.835 22.557 43.248 33.015 67.274 38.206 8.775 1.897 14.656 2.255 48 2.925 36.36.731 38.42.875 47.739 3.34 16.198 4.285 28.803 12.025 49.094 30.148 6.493 5.8 10.17 8.446 10.824 7.792.654-.654-.818-2.688-4.333-5.988-17.975-16.873-33.88-27.953-46.334-32.278-14.103-4.898-16.366-5.137-56.49-5.976-32.789-.685-39.835-1.101-47.5-2.801-25.653-5.691-42.791-15.771-70.503-41.467-32.447-30.088-49.264-41.483-68.061-46.115-8.86-2.184-22.531-2-31.936.429m-87.271 17.557c-.332.332-1.195.368-1.916.079-.798-.319-.561-.556.604-.604 1.054-.043 1.644.193 1.312.525m87.771 4.039c-3.85.814-16.544 5.282-28.209 9.928-42.88 17.079-52.17 17.216-103.634 1.53-21.738-6.625-32.453-8.504-44.224-7.755C3.151 491 1 491.582 1 493.714c0 .995.567 1.283 1.683.854.926-.355 5.763-.9 10.75-1.211 12.195-.761 21.785 1.063 50.067 9.527 27.445 8.212 34.51 9.569 49 9.411 14.127-.154 25-2.915 47.894-12.162 24.197-9.773 29.302-11.221 41.834-11.864 13.417-.688 21.308 1.024 35.272 7.655 12.003 5.699 21.039 11.77 42.113 28.293 26.743 20.968 40.837 29.367 58.387 34.795 16.901 5.227 24.74 6.114 61.5 6.961 37.033.853 43.339 1.638 57.753 7.189 9.032 3.478 22.348 11.956 32.494 20.689 3.929 3.382 7.394 6.149 7.699 6.149 3.744 0-7.139-10.643-19.392-18.964-10.097-6.856-23.743-12.915-34.096-15.137-7.831-1.682-15.392-2.18-43.958-2.901-18.975-.479-37.425-1.365-41-1.97-16.278-2.753-30.541-7.718-43.583-15.171-10.722-6.126-14.285-8.653-34.726-24.632-27.727-21.674-42.025-30.091-58.101-34.202-9.437-2.414-22.75-2.566-33.09-.38m-181 9.854c-.55.187-2.687.621-4.75.966-2.476.415-3.75 1.161-3.75 2.199 0 1.156.595 1.399 2.25.919 1.238-.358 6.3-.912 11.25-1.231 13.421-.863 23.672 1.363 55.764 12.112 33.481 11.215 42.285 12.986 60.736 12.222 12.755-.529 16.81-1.365 47-9.694 15.939-4.397 34.55-5.241 47.05-2.132 10.675 2.655 26.198 10.32 45.687 22.56 27.822 17.474 42.062 24.447 59.295 29.033 16.823 4.478 27.596 5.577 63.968 6.527 37.248.973 42.967 1.684 57.026 7.097 8.421 3.242 17.762 9.071 28.121 17.545 4.662 3.815 7.279 5.354 7.955 4.678 2.164-2.164-17.021-16.472-31.226-23.289-14.312-6.867-22.144-8.015-61.376-8.998-36.375-.912-49.111-2.224-64.309-6.629-18.603-5.39-26.315-9.147-55.21-26.893-24.355-14.959-32.471-19.27-43.698-23.217-7.347-2.582-8.735-2.732-24.783-2.671-15.263.058-17.971.338-26.5 2.734-35.064 9.849-36.412 10.106-53 10.137-19.208.035-22.832-.748-58-12.528-14.575-4.882-30.496-9.567-35.381-10.41-7.913-1.367-21.433-1.948-24.119-1.037m-3.421 6.385c-1.881.34-3.605 1.178-3.831 1.863-.32.968 1.906 1.104 9.961.611C28.4 504.305 37.769 506.55 71 519.689c25.778 10.192 36.226 13.667 49.5 16.464 13.689 2.884 33.743 2.91 54.5.07 22.811-3.12 31.278-3.563 42.5-2.225 13.248 1.58 28.995 6.465 48.596 15.075 40.444 17.766 58.438 22.863 87.713 24.846l11.691.792-11.644.144c-22.237.277-43.287-2.801-77.874-11.386-37.569-9.325-39.886-9.611-84.982-10.498-29.732-.585-41.169-1.159-46.25-2.322C125 546.13 109.515 540.487 84 528.512c-36.92-17.327-48.573-20.963-67-20.906-12.69.039-17.51.95-16.205 3.062.5.81 2.051.895 5.209.286 16.001-3.086 34.725 1.108 63.341 14.189 41.204 18.834 54.898 24.115 72.532 27.973 8.422 1.842 14.553 2.202 49.123 2.881 43.584.857 47.282 1.258 74.5 8.085 42.95 10.772 56.656 12.907 88.5 13.786l23.5.648-25 .808c-15.979.517-34.563.399-51.5-.326-14.575-.624-46.3-.991-70.5-.816-47.009.34-49.672.152-68.435-4.837-17.566-4.67-34.235-12.167-68.565-30.837-44.758-24.341-58.49-29.232-79.356-28.261-5.854.272-11.451.833-12.436 1.247-3.028 1.271-1.341 3.05 2.376 2.506 1.879-.275 8.816-.466 15.416-.425 11.066.069 12.835.358 22.728 3.715 11.741 3.984 27.786 11.746 54.371 26.307 31.915 17.478 49.763 25.126 69.901 29.951 15.704 3.764 28.658 4.536 63.69 3.8 20.479-.43 45.772-.18 71.5.708l39.81 1.374-18.5 1.238c-27.978 1.873-46.161 3.998-71.523 8.36-12.663 2.177-26.501 4.253-30.75 4.612-4.25.36-7.727 1.037-7.727 1.507 0 1.547 15.069.889 27.261-1.192 6.591-1.124 12.174-1.853 12.408-1.62.233.234-1.172.724-3.122 1.09-3.971.745-4.826 2.575-1.203 2.575 1.289 0 8.827-1.308 16.75-2.906 33.72-6.803 84.24-11.456 124.906-11.506 33.115-.04 37.098.645 54.457 9.361 6.407 3.217 10.194 4.615 10.623 3.922.474-.767 1.261-.759 2.732.028 1.366.731 2.277.766 2.688.101.416-.674 1.241-.674 2.5 0 2.974 1.592 3.692-.954.894-3.169-1.317-1.041-7.344-4.392-13.394-7.446-6.05-3.054-9.875-5.25-8.5-4.881 5.158 1.386 15.309 6.59 22.352 11.459 7.13 4.929 9.648 5.996 9.648 4.088 0-1.322-5.265-5.2-15.019-11.062-4.565-2.744-7.85-4.989-7.3-4.989 1.448 0 16.476 9.165 21.321 13.002 2.855 2.261 4.448 2.948 5.167 2.229 2.525-2.525-22.407-17.882-35.169-21.66-11.796-3.492-23.011-4.563-48-4.582-59.711-.046-77.136-3.479-125.457-24.719-18.549-8.153-30.052-12.207-42.202-14.871-11.429-2.505-31.852-2.263-51.841.615-18.339 2.641-38.902 3.073-50.5 1.06-11.294-1.959-27.956-7.264-47.736-15.196-22.893-9.182-35.707-13.506-45.562-15.375-7.918-1.502-20.17-1.788-26.623-.621m.66 17.077c-4.377.849-4.878 1.197-3.932 2.728.507.82 2.205.851 6.195.111 7.227-1.339 19.214-.377 29.331 2.352 12.174 3.285 36.666 16.152 67.051 35.226 39.272 24.652 55.728 32.803 76.069 37.681C189.02 600.111 205 600.725 205 599c0-.55-1.966-1-4.369-1-6.939 0-20.657-2.713-30.794-6.091-16.715-5.569-31.359-13.555-74.566-40.664-30-18.823-48.637-27.647-65.109-30.828-7.717-1.49-18.096-1.685-24.423-.458M7.5 530.655l-4.25.903c-1.238.264-2.25 1.135-2.25 1.936 0 1.125.74 1.291 3.25.731 1.788-.399 8.425-.69 14.75-.648 10.271.069 12.548.432 21.311 3.397 17.844 6.037 37.456 18.57 73.539 46.995C125.043 592.786 134.579 600 135.041 600c3.061 0 .021-3.095-13.817-14.071-46.284-36.707-66.601-49.09-89.224-54.38-5.981-1.398-19.741-1.9-24.5-.894m.631 17.387c-6.827.925-8.033 1.461-6.564 2.917.572.567 3.833.559 8.423-.02 24.379-3.074 49.068 8.889 85.201 41.287 4.843 4.342 9.293 7.593 9.889 7.224 1.383-.854-1.871-4.288-14.08-14.856-33.832-29.285-57.962-39.928-82.869-36.552M3.75 571.661c-1.513.259-2.75 1.048-2.75 1.752 0 .996 2.718 1.176 12.25.81 9.211-.354 13.863-.07 18.75 1.142 9.042 2.243 24.898 10.445 35 18.105 8.204 6.221 11.621 7.899 10.751 5.28-.623-1.877-15.352-12.659-24.015-17.581-13.144-7.466-20.325-9.482-34.736-9.749-6.875-.127-13.737-.019-15.25.241m408.979 6.943c-.332.332-1.195.368-1.916.079-.798-.319-.561-.556.604-.604 1.054-.043 1.644.193 1.312.525m4 0c-.332.332-1.195.368-1.916.079-.798-.319-.561-.556.604-.604 1.054-.043 1.644.193 1.312.525m22 0c-.332.332-1.195.368-1.916.079-.798-.319-.561-.556.604-.604 1.054-.043 1.644.193 1.312.525m-13.46 1.052c-.677.274-2.027.291-3 .037-.973-.254-.419-.478 1.231-.498 1.65-.02 2.446.187 1.769.461m10.231 1.816c5.303 1.748 3.375 1.786-3.5.071-3.025-.755-4.375-1.377-3-1.381 1.375-.005 4.3.585 6.5 1.31M449 582c.825.533 1.05.969.5.969s-1.675-.436-2.5-.969c-.825-.533-1.05-.969-.5-.969s1.675.436 2.5.969M6.717 592.892c-2.081.334-3.768 1.055-3.75 1.601.02.601 5.265 1.032 13.283 1.091 10.682.078 14.51.513 19.75 2.243 6.761 2.233 11 2.756 11 1.358 0-1.132-11.274-4.89-18.434-6.145-6.269-1.099-15.543-1.162-21.849-.148m250.533 2.77c-.687.278-1.812.278-2.5 0-.687-.277-.125-.504 1.25-.504s1.938.227 1.25.504" fill-rule="evenodd"/></svg>